<?xml version="1.0" encoding="UTF-8"?>
<!DOCTYPE svg PUBLIC "-//W3C//DTD SVG 1.1//EN" "http://www.w3.org/Graphics/SVG/1.1/DTD/svg11.dtd">
<!-- Creator: CorelDRAW X8 -->
<svg xmlns="http://www.w3.org/2000/svg" xml:space="preserve" width="297mm" height="420mm" version="1.1" style="shape-rendering:geometricPrecision; text-rendering:geometricPrecision; image-rendering:optimizeQuality; fill-rule:evenodd; clip-rule:evenodd"
viewBox="0 0 29700 42000"
 xmlns:xlink="http://www.w3.org/1999/xlink">
 <defs>
  <style type="text/css">
   <![CDATA[
    .str0 {stroke:white;stroke-width:16.93}
    .fil240 {fill:black}
    .fil1 {fill:#00CCFE}
    .fil0 {fill:#00CCFF}
    .fil5 {fill:#00CDF8}
    .fil4 {fill:#00CDFA}
    .fil3 {fill:#00CDFB}
    .fil2 {fill:#00CDFC}
    .fil9 {fill:#00CEF3}
    .fil8 {fill:#00CEF4}
    .fil7 {fill:#00CEF6}
    .fil6 {fill:#00CEF7}
    .fil13 {fill:#00CFEE}
    .fil12 {fill:#00CFEF}
    .fil11 {fill:#00CFF1}
    .fil10 {fill:#00CFF2}
    .fil17 {fill:#00D0E9}
    .fil16 {fill:#00D0EA}
    .fil15 {fill:#00D0EB}
    .fil14 {fill:#00D0ED}
    .fil21 {fill:#00D1E4}
    .fil20 {fill:#00D1E5}
    .fil19 {fill:#00D1E7}
    .fil18 {fill:#00D1E8}
    .fil25 {fill:#00D2DF}
    .fil24 {fill:#00D2E0}
    .fil23 {fill:#00D2E2}
    .fil22 {fill:#00D2E3}
    .fil29 {fill:#00D3DB}
    .fil28 {fill:#00D3DC}
    .fil27 {fill:#00D3DD}
    .fil26 {fill:#00D3DE}
    .fil34 {fill:#00D4D5}
    .fil33 {fill:#00D4D6}
    .fil32 {fill:#00D4D7}
    .fil31 {fill:#00D4D8}
    .fil30 {fill:#00D4D9}
    .fil38 {fill:#00D5D0}
    .fil37 {fill:#00D5D1}
    .fil36 {fill:#00D5D2}
    .fil35 {fill:#00D5D4}
    .fil43 {fill:#00D6CB}
    .fil42 {fill:#00D6CC}
    .fil41 {fill:#00D6CD}
    .fil40 {fill:#00D6CE}
    .fil39 {fill:#00D6CF}
    .fil47 {fill:#00D7C6}
    .fil46 {fill:#00D7C7}
    .fil45 {fill:#00D7C9}
    .fil44 {fill:#00D7CA}
    .fil52 {fill:#00D8C1}
    .fil51 {fill:#00D8C2}
    .fil50 {fill:#00D8C3}
    .fil49 {fill:#00D8C4}
    .fil48 {fill:#00D8C5}
    .fil57 {fill:#00D9BC}
    .fil56 {fill:#00D9BD}
    .fil55 {fill:#00D9BE}
    .fil54 {fill:#00D9BF}
    .fil53 {fill:#00D9C0}
    .fil62 {fill:#00DAB7}
    .fil61 {fill:#00DAB8}
    .fil60 {fill:#00DAB9}
    .fil59 {fill:#00DABA}
    .fil58 {fill:#00DABB}
    .fil67 {fill:#00DBB2}
    .fil66 {fill:#00DBB3}
    .fil65 {fill:#00DBB4}
    .fil64 {fill:#00DBB5}
    .fil63 {fill:#00DBB6}
    .fil72 {fill:#00DCAD}
    .fil71 {fill:#00DCAE}
    .fil70 {fill:#00DCAF}
    .fil69 {fill:#00DCB0}
    .fil68 {fill:#00DCB1}
    .fil77 {fill:#00DDA8}
    .fil76 {fill:#00DDA9}
    .fil75 {fill:#00DDAA}
    .fil74 {fill:#00DDAB}
    .fil73 {fill:#00DDAC}
    .fil82 {fill:#00DEA3}
    .fil81 {fill:#00DEA4}
    .fil80 {fill:#00DEA5}
    .fil79 {fill:#00DEA6}
    .fil78 {fill:#00DEA7}
    .fil87 {fill:#00DF9E}
    .fil86 {fill:#00DF9F}
    .fil85 {fill:#00DFA0}
    .fil84 {fill:#00DFA1}
    .fil83 {fill:#00DFA2}
    .fil92 {fill:#00E099}
    .fil91 {fill:#00E09A}
    .fil90 {fill:#00E09B}
    .fil89 {fill:#00E09C}
    .fil88 {fill:#00E09D}
    .fil97 {fill:#00E194}
    .fil96 {fill:#00E195}
    .fil95 {fill:#00E196}
    .fil94 {fill:#00E197}
    .fil93 {fill:#00E198}
    .fil102 {fill:#00E28F}
    .fil101 {fill:#00E290}
    .fil100 {fill:#00E291}
    .fil99 {fill:#00E292}
    .fil98 {fill:#00E293}
    .fil107 {fill:#00E38A}
    .fil106 {fill:#00E38B}
    .fil105 {fill:#00E38C}
    .fil104 {fill:#00E38D}
    .fil103 {fill:#00E38E}
    .fil112 {fill:#00E485}
    .fil111 {fill:#00E486}
    .fil110 {fill:#00E487}
    .fil109 {fill:#00E488}
    .fil108 {fill:#00E489}
    .fil117 {fill:#00E580}
    .fil116 {fill:#00E581}
    .fil115 {fill:#00E582}
    .fil114 {fill:#00E583}
    .fil113 {fill:#00E584}
    .fil122 {fill:#00E67B}
    .fil121 {fill:#00E67C}
    .fil120 {fill:#00E67D}
    .fil119 {fill:#00E67E}
    .fil118 {fill:#00E67F}
    .fil127 {fill:#00E776}
    .fil126 {fill:#00E777}
    .fil125 {fill:#00E778}
    .fil124 {fill:#00E779}
    .fil123 {fill:#00E77A}
    .fil132 {fill:#00E871}
    .fil131 {fill:#00E872}
    .fil130 {fill:#00E873}
    .fil129 {fill:#00E874}
    .fil128 {fill:#00E875}
    .fil137 {fill:#00E96C}
    .fil136 {fill:#00E96D}
    .fil135 {fill:#00E96E}
    .fil134 {fill:#00E96F}
    .fil133 {fill:#00E970}
    .fil142 {fill:#00EA67}
    .fil141 {fill:#00EA68}
    .fil140 {fill:#00EA69}
    .fil139 {fill:#00EA6A}
    .fil138 {fill:#00EA6B}
    .fil147 {fill:#00EB62}
    .fil146 {fill:#00EB63}
    .fil145 {fill:#00EB64}
    .fil144 {fill:#00EB65}
    .fil143 {fill:#00EB66}
    .fil152 {fill:#00EC5D}
    .fil151 {fill:#00EC5E}
    .fil150 {fill:#00EC5F}
    .fil149 {fill:#00EC60}
    .fil148 {fill:#00EC61}
    .fil157 {fill:#00ED58}
    .fil156 {fill:#00ED59}
    .fil155 {fill:#00ED5A}
    .fil154 {fill:#00ED5B}
    .fil153 {fill:#00ED5C}
    .fil162 {fill:#00EE53}
    .fil161 {fill:#00EE54}
    .fil160 {fill:#00EE55}
    .fil159 {fill:#00EE56}
    .fil158 {fill:#00EE57}
    .fil167 {fill:#00EF4E}
    .fil166 {fill:#00EF4F}
    .fil165 {fill:#00EF50}
    .fil164 {fill:#00EF51}
    .fil163 {fill:#00EF52}
    .fil172 {fill:#00F049}
    .fil171 {fill:#00F04A}
    .fil170 {fill:#00F04B}
    .fil169 {fill:#00F04C}
    .fil168 {fill:#00F04D}
    .fil177 {fill:#00F144}
    .fil176 {fill:#00F145}
    .fil175 {fill:#00F146}
    .fil174 {fill:#00F147}
    .fil173 {fill:#00F148}
    .fil182 {fill:#00F23F}
    .fil181 {fill:#00F240}
    .fil180 {fill:#00F241}
    .fil179 {fill:#00F242}
    .fil178 {fill:#00F243}
    .fil186 {fill:#00F33B}
    .fil185 {fill:#00F33C}
    .fil184 {fill:#00F33D}
    .fil183 {fill:#00F33E}
    .fil191 {fill:#00F435}
    .fil190 {fill:#00F436}
    .fil189 {fill:#00F437}
    .fil188 {fill:#00F438}
    .fil187 {fill:#00F439}
    .fil196 {fill:#00F530}
    .fil195 {fill:#00F531}
    .fil194 {fill:#00F532}
    .fil193 {fill:#00F533}
    .fil192 {fill:#00F534}
    .fil201 {fill:#00F62B}
    .fil200 {fill:#00F62C}
    .fil199 {fill:#00F62D}
    .fil198 {fill:#00F62E}
    .fil197 {fill:#00F62F}
    .fil205 {fill:#00F727}
    .fil204 {fill:#00F728}
    .fil203 {fill:#00F729}
    .fil202 {fill:#00F72A}
    .fil210 {fill:#00F821}
    .fil209 {fill:#00F822}
    .fil208 {fill:#00F823}
    .fil207 {fill:#00F824}
    .fil206 {fill:#00F825}
    .fil214 {fill:#00F91D}
    .fil213 {fill:#00F91E}
    .fil212 {fill:#00F91F}
    .fil211 {fill:#00F920}
    .fil219 {fill:#00FA17}
    .fil218 {fill:#00FA18}
    .fil217 {fill:#00FA19}
    .fil216 {fill:#00FA1A}
    .fil215 {fill:#00FA1B}
    .fil223 {fill:#00FB12}
    .fil222 {fill:#00FB13}
    .fil221 {fill:#00FB14}
    .fil220 {fill:#00FB16}
    .fil227 {fill:#00FC0D}
    .fil226 {fill:#00FC0F}
    .fil225 {fill:#00FC10}
    .fil224 {fill:#00FC11}
    .fil231 {fill:#00FD09}
    .fil230 {fill:#00FD0A}
    .fil229 {fill:#00FD0B}
    .fil228 {fill:#00FD0C}
    .fil235 {fill:#00FE04}
    .fil234 {fill:#00FE05}
    .fil233 {fill:#00FE06}
    .fil232 {fill:#00FE07}
    .fil238 {fill:lime}
    .fil237 {fill:#00FF01}
    .fil236 {fill:#00FF02}
    .fil239 {fill:white}
   ]]>
  </style>
    <clipPath id="id0">
     <path d="M13734 9862c-6030,0 -10918,4888 -10918,10918 0,6030 4888,10918 10918,10918l0 -1c3995,-64 7332,-3234 8242,-7489 -75,281 -190,542 -339,774 -729,1414 -2101,2367 -3673,2367 -2336,0 -4230,-2105 -4230,-4701l0 -1868 10918 0 3275 0c0,-7832 -6342,-14181 -14171,-14193 -8,0 -15,-1 -22,-1l0 3276z"/>
    </clipPath>
 </defs>
 <g id="Camada_x0020_1">
  <metadata id="CorelCorpID_0Corel-Layer"/>
  <g>
   <g style="clip-path:url(#id0)">
    <polygon class="fil0" points="-3463,19633 -1965,18322 13172,35621 11673,36932 "/>
    <polygon id="1" class="fil1" points="-2002,18354 -1891,18257 13245,35556 13135,35653 "/>
    <polygon id="2" class="fil2" points="-1928,18290 -1817,18193 13319,35491 13209,35588 "/>
    <polygon id="3" class="fil3" points="-1854,18225 -1743,18128 13393,35427 13282,35524 "/>
    <polygon id="4" class="fil4" points="-1780,18160 -1669,18064 13467,35362 13356,35459 "/>
    <polygon id="5" class="fil5" points="-1706,18096 -1596,17999 13541,35298 13430,35394 "/>
    <polygon id="6" class="fil6" points="-1632,18031 -1522,17934 13615,35233 13504,35330 "/>
    <polygon id="7" class="fil7" points="-1559,17967 -1448,17870 13688,35168 13578,35265 "/>
    <polygon id="8" class="fil8" points="-1485,17902 -1374,17805 13762,35104 13651,35201 "/>
    <polygon id="9" class="fil9" points="-1411,17838 -1300,17741 13836,35039 13725,35136 "/>
    <polygon id="10" class="fil10" points="-1337,17773 -1226,17676 13910,34975 13799,35071 "/>
    <polygon id="11" class="fil11" points="-1263,17708 -1153,17611 13984,34910 13873,35007 "/>
    <polygon id="12" class="fil12" points="-1190,17644 -1079,17547 14057,34845 13947,34942 "/>
    <polygon id="13" class="fil13" points="-1116,17579 -1005,17482 14131,34781 14021,34878 "/>
    <polygon id="14" class="fil14" points="-1042,17515 -931,17418 14205,34716 14094,34813 "/>
    <polygon id="15" class="fil15" points="-968,17450 -857,17353 14279,34652 14168,34748 "/>
    <polygon id="16" class="fil16" points="-894,17385 -784,17288 14353,34587 14242,34684 "/>
    <polygon id="17" class="fil17" points="-820,17321 -710,17224 14427,34522 14316,34619 "/>
    <polygon id="18" class="fil18" points="-747,17256 -636,17159 14500,34458 14390,34555 "/>
    <polygon id="19" class="fil19" points="-673,17192 -562,17095 14574,34393 14463,34490 "/>
    <polygon id="20" class="fil20" points="-599,17127 -488,17030 14648,34329 14537,34426 "/>
    <polygon id="21" class="fil21" points="-525,17062 -414,16965 14722,34264 14611,34361 "/>
    <polygon id="22" class="fil22" points="-451,16998 -341,16901 14796,34199 14685,34296 "/>
    <polygon id="23" class="fil23" points="-377,16933 -267,16836 14869,34135 14759,34232 "/>
    <polygon id="24" class="fil24" points="-304,16869 -193,16772 14943,34070 14833,34167 "/>
    <polygon id="25" class="fil25" points="-230,16804 -119,16707 15017,34006 14906,34103 "/>
    <polygon id="26" class="fil26" points="-156,16739 -45,16643 15091,33941 14980,34038 "/>
    <polygon id="27" class="fil27" points="-82,16675 29,16578 15165,33876 15054,33973 "/>
    <polygon id="28" class="fil28" points="-8,16610 102,16513 15239,33812 15128,33909 "/>
    <polygon id="29" class="fil29" points="65,16546 176,16449 15312,33747 15202,33844 "/>
    <polygon id="30" class="fil30" points="139,16481 250,16384 15386,33683 15276,33780 "/>
    <polygon id="31" class="fil31" points="213,16416 324,16320 15460,33618 15349,33715 "/>
    <polygon id="32" class="fil32" points="287,16352 398,16255 15534,33554 15423,33650 "/>
    <polygon id="33" class="fil33" points="361,16287 471,16190 15608,33489 15497,33586 "/>
    <polygon id="34" class="fil34" points="435,16223 545,16126 15682,33424 15571,33521 "/>
    <polygon id="35" class="fil35" points="508,16158 619,16061 15755,33360 15645,33457 "/>
    <polygon id="36" class="fil36" points="582,16093 693,15997 15829,33295 15718,33392 "/>
    <polygon id="37" class="fil37" points="656,16029 767,15932 15903,33231 15792,33327 "/>
    <polygon id="38" class="fil38" points="730,15964 841,15867 15977,33166 15866,33263 "/>
    <polygon id="39" class="fil39" points="804,15900 914,15803 16051,33101 15940,33198 "/>
    <polygon id="40" class="fil40" points="877,15835 988,15738 16124,33037 16014,33134 "/>
    <polygon id="41" class="fil41" points="951,15770 1062,15674 16198,32972 16088,33069 "/>
    <polygon id="42" class="fil42" points="1025,15706 1136,15609 16272,32908 16161,33004 "/>
    <polygon id="43" class="fil43" points="1099,15641 1210,15544 16346,32843 16235,32940 "/>
    <polygon id="44" class="fil44" points="1173,15577 1284,15480 16420,32778 16309,32875 "/>
    <polygon id="45" class="fil45" points="1247,15512 1357,15415 16494,32714 16383,32811 "/>
    <polygon id="46" class="fil46" points="1320,15448 1431,15351 16567,32649 16457,32746 "/>
    <polygon id="47" class="fil47" points="1394,15383 1505,15286 16641,32585 16530,32681 "/>
    <polygon id="48" class="fil48" points="1468,15318 1579,15221 16715,32520 16604,32617 "/>
    <polygon id="49" class="fil49" points="1542,15254 1653,15157 16789,32455 16678,32552 "/>
    <polygon id="50" class="fil50" points="1616,15189 1726,15092 16863,32391 16752,32488 "/>
    <polygon id="51" class="fil51" points="1690,15125 1800,15028 16936,32326 16826,32423 "/>
    <polygon id="52" class="fil52" points="1763,15060 1874,14963 17010,32262 16900,32359 "/>
    <polygon id="53" class="fil53" points="1837,14995 1948,14898 17084,32197 16973,32294 "/>
    <polygon id="54" class="fil54" points="1911,14931 2022,14834 17158,32132 17047,32229 "/>
    <polygon id="55" class="fil55" points="1985,14866 2096,14769 17232,32068 17121,32165 "/>
    <polygon id="56" class="fil56" points="2059,14802 2169,14705 17306,32003 17195,32100 "/>
    <polygon id="57" class="fil57" points="2132,14737 2243,14640 17379,31939 17269,32036 "/>
    <polygon id="58" class="fil58" points="2206,14672 2317,14576 17453,31874 17343,31971 "/>
    <polygon id="59" class="fil59" points="2280,14608 2391,14511 17527,31809 17416,31906 "/>
    <polygon id="60" class="fil60" points="2354,14543 2465,14446 17601,31745 17490,31842 "/>
    <polygon id="61" class="fil61" points="2428,14479 2538,14382 17675,31680 17564,31777 "/>
    <polygon id="62" class="fil62" points="2502,14414 2612,14317 17749,31616 17638,31713 "/>
    <polygon id="63" class="fil63" points="2575,14349 2686,14253 17822,31551 17712,31648 "/>
    <polygon id="64" class="fil64" points="2649,14285 2760,14188 17896,31487 17785,31583 "/>
    <polygon id="65" class="fil65" points="2723,14220 2834,14123 17970,31422 17859,31519 "/>
    <polygon id="66" class="fil66" points="2797,14156 2908,14059 18044,31357 17933,31454 "/>
    <polygon id="67" class="fil67" points="2871,14091 2981,13994 18118,31293 18007,31390 "/>
    <polygon id="68" class="fil68" points="2944,14026 3055,13930 18191,31228 18081,31325 "/>
    <polygon id="69" class="fil69" points="3018,13962 3129,13865 18265,31164 18155,31260 "/>
    <polygon id="70" class="fil70" points="3092,13897 3203,13800 18339,31099 18228,31196 "/>
    <polygon id="71" class="fil71" points="3166,13833 3277,13736 18413,31034 18302,31131 "/>
    <polygon id="72" class="fil72" points="3240,13768 3351,13671 18487,30970 18376,31067 "/>
    <polygon id="73" class="fil73" points="3314,13703 3424,13607 18561,30905 18450,31002 "/>
    <polygon id="74" class="fil74" points="3387,13639 3498,13542 18634,30841 18524,30937 "/>
    <polygon id="75" class="fil75" points="3461,13574 3572,13477 18708,30776 18597,30873 "/>
    <polygon id="76" class="fil76" points="3535,13510 3646,13413 18782,30711 18671,30808 "/>
    <polygon id="77" class="fil77" points="3609,13445 3720,13348 18856,30647 18745,30744 "/>
    <polygon id="78" class="fil78" points="3683,13381 3793,13284 18930,30582 18819,30679 "/>
    <polygon id="79" class="fil79" points="3757,13316 3867,13219 19003,30518 18893,30614 "/>
    <polygon id="80" class="fil80" points="3830,13251 3941,13154 19077,30453 18967,30550 "/>
    <polygon id="81" class="fil80" points="3904,13187 4015,13090 19151,30388 19040,30485 "/>
    <polygon id="82" class="fil81" points="3978,13122 4089,13025 19225,30324 19114,30421 "/>
    <polygon id="83" class="fil82" points="4052,13058 4163,12961 19299,30259 19188,30356 "/>
    <polygon id="84" class="fil83" points="4126,12993 4236,12896 19373,30195 19262,30292 "/>
    <polygon id="85" class="fil84" points="4199,12928 4310,12831 19446,30130 19336,30227 "/>
    <polygon id="86" class="fil85" points="4273,12864 4384,12767 19520,30065 19410,30162 "/>
    <polygon id="87" class="fil86" points="4347,12799 4458,12702 19594,30001 19483,30098 "/>
    <polygon id="88" class="fil87" points="4421,12735 4532,12638 19668,29936 19557,30033 "/>
    <polygon id="89" class="fil88" points="4495,12670 4605,12573 19742,29872 19631,29969 "/>
    <polygon id="90" class="fil89" points="4569,12605 4679,12509 19816,29807 19705,29904 "/>
    <polygon id="91" class="fil89" points="4642,12541 4753,12444 19889,29742 19779,29839 "/>
    <polygon id="92" class="fil90" points="4716,12476 4827,12379 19963,29678 19852,29775 "/>
    <polygon id="93" class="fil91" points="4790,12412 4901,12315 20037,29613 19926,29710 "/>
    <polygon id="94" class="fil92" points="4864,12347 4975,12250 20111,29549 20000,29646 "/>
    <polygon id="95" class="fil93" points="4938,12282 5048,12186 20185,29484 20074,29581 "/>
    <polygon id="96" class="fil94" points="5011,12218 5122,12121 20258,29420 20148,29516 "/>
    <polygon id="97" class="fil95" points="5085,12153 5196,12056 20332,29355 20222,29452 "/>
    <polygon id="98" class="fil96" points="5159,12089 5270,11992 20406,29290 20295,29387 "/>
    <polygon id="99" class="fil96" points="5233,12024 5344,11927 20480,29226 20369,29323 "/>
    <polygon id="100" class="fil97" points="5307,11959 5418,11863 20554,29161 20443,29258 "/>
    <polygon id="101" class="fil98" points="5381,11895 5491,11798 20628,29097 20517,29193 "/>
    <polygon id="102" class="fil99" points="5454,11830 5565,11733 20701,29032 20591,29129 "/>
    <polygon id="103" class="fil100" points="5528,11766 5639,11669 20775,28967 20664,29064 "/>
    <polygon id="104" class="fil101" points="5602,11701 5713,11604 20849,28903 20738,29000 "/>
    <polygon id="105" class="fil102" points="5676,11636 5787,11540 20923,28838 20812,28935 "/>
    <polygon id="106" class="fil102" points="5750,11572 5860,11475 20997,28774 20886,28870 "/>
    <polygon id="107" class="fil103" points="5824,11507 5934,11410 21071,28709 20960,28806 "/>
    <polygon id="108" class="fil104" points="5897,11443 6008,11346 21144,28644 21034,28741 "/>
    <polygon id="109" class="fil105" points="5971,11378 6082,11281 21218,28580 21107,28677 "/>
    <polygon id="110" class="fil106" points="6045,11314 6156,11217 21292,28515 21181,28612 "/>
    <polygon id="111" class="fil106" points="6119,11249 6230,11152 21366,28451 21255,28547 "/>
    <polygon id="112" class="fil107" points="6193,11184 6303,11087 21440,28386 21329,28483 "/>
    <polygon id="113" class="fil108" points="6266,11120 6377,11023 21513,28321 21403,28418 "/>
    <polygon id="114" class="fil109" points="6340,11055 6451,10958 21587,28257 21477,28354 "/>
    <polygon id="115" class="fil110" points="6414,10991 6525,10894 21661,28192 21550,28289 "/>
    <polygon id="116" class="fil110" points="6488,10926 6599,10829 21735,28128 21624,28225 "/>
    <polygon id="117" class="fil111" points="6562,10861 6672,10764 21809,28063 21698,28160 "/>
    <polygon id="118" class="fil112" points="6636,10797 6746,10700 21883,27998 21772,28095 "/>
    <polygon id="119" class="fil113" points="6709,10732 6820,10635 21956,27934 21846,28031 "/>
    <polygon id="120" class="fil114" points="6783,10668 6894,10571 22030,27869 21919,27966 "/>
    <polygon id="121" class="fil114" points="6857,10603 6968,10506 22104,27805 21993,27902 "/>
    <polygon id="122" class="fil115" points="6931,10538 7042,10441 22178,27740 22067,27837 "/>
    <polygon id="123" class="fil116" points="7005,10474 7115,10377 22252,27675 22141,27772 "/>
    <polygon id="124" class="fil117" points="7078,10409 7189,10312 22325,27611 22215,27708 "/>
    <polygon id="125" class="fil118" points="7152,10345 7263,10248 22399,27546 22289,27643 "/>
    <polygon id="126" class="fil118" points="7226,10280 7337,10183 22473,27482 22362,27579 "/>
    <polygon id="127" class="fil119" points="7300,10215 7411,10119 22547,27417 22436,27514 "/>
    <polygon id="128" class="fil120" points="7374,10151 7485,10054 22621,27352 22510,27449 "/>
    <polygon id="129" class="fil121" points="7448,10086 7558,9989 22695,27288 22584,27385 "/>
    <polygon id="130" class="fil121" points="7521,10022 7632,9925 22768,27223 22658,27320 "/>
    <polygon id="131" class="fil122" points="7595,9957 7706,9860 22842,27159 22731,27256 "/>
    <polygon id="132" class="fil123" points="7669,9892 7780,9796 22916,27094 22805,27191 "/>
    <polygon id="133" class="fil124" points="7743,9828 7854,9731 22990,27030 22879,27126 "/>
    <polygon id="134" class="fil125" points="7817,9763 7927,9666 23064,26965 22953,27062 "/>
    <polygon id="135" class="fil125" points="7891,9699 8001,9602 23138,26900 23027,26997 "/>
    <polygon id="136" class="fil126" points="7964,9634 8075,9537 23211,26836 23101,26933 "/>
    <polygon id="137" class="fil127" points="8038,9569 8149,9473 23285,26771 23174,26868 "/>
    <polygon id="138" class="fil128" points="8112,9505 8223,9408 23359,26707 23248,26803 "/>
    <polygon id="139" class="fil129" points="8186,9440 8297,9343 23433,26642 23322,26739 "/>
    <polygon id="140" class="fil129" points="8260,9376 8370,9279 23507,26577 23396,26674 "/>
    <polygon id="141" class="fil130" points="8333,9311 8444,9214 23580,26513 23470,26610 "/>
    <polygon id="142" class="fil131" points="8407,9247 8518,9150 23654,26448 23544,26545 "/>
    <polygon id="143" class="fil132" points="8481,9182 8592,9085 23728,26384 23617,26480 "/>
    <polygon id="144" class="fil133" points="8555,9117 8666,9020 23802,26319 23691,26416 "/>
    <polygon id="145" class="fil133" points="8629,9053 8739,8956 23876,26254 23765,26351 "/>
    <polygon id="146" class="fil134" points="8703,8988 8813,8891 23950,26190 23839,26287 "/>
    <polygon id="147" class="fil135" points="8776,8924 8887,8827 24023,26125 23913,26222 "/>
    <polygon id="148" class="fil136" points="8850,8859 8961,8762 24097,26061 23986,26158 "/>
    <polygon id="149" class="fil137" points="8924,8794 9035,8697 24171,25996 24060,26093 "/>
    <polygon id="150" class="fil138" points="8998,8730 9109,8633 24245,25931 24134,26028 "/>
    <polygon id="151" class="fil138" points="9072,8665 9182,8568 24319,25867 24208,25964 "/>
    <polygon id="152" class="fil139" points="9146,8601 9256,8504 24392,25802 24282,25899 "/>
    <polygon id="153" class="fil140" points="9219,8536 9330,8439 24466,25738 24356,25835 "/>
    <polygon id="154" class="fil141" points="9293,8471 9404,8374 24540,25673 24429,25770 "/>
    <polygon id="155" class="fil142" points="9367,8407 9478,8310 24614,25608 24503,25705 "/>
    <polygon id="156" class="fil143" points="9441,8342 9552,8245 24688,25544 24577,25641 "/>
    <polygon id="157" class="fil144" points="9515,8278 9625,8181 24762,25479 24651,25576 "/>
    <polygon id="158" class="fil144" points="9588,8213 9699,8116 24835,25415 24725,25512 "/>
    <polygon id="159" class="fil145" points="9662,8148 9773,8052 24909,25350 24798,25447 "/>
    <polygon id="160" class="fil146" points="9736,8084 9847,7987 24983,25285 24872,25382 "/>
    <polygon id="161" class="fil147" points="9810,8019 9921,7922 25057,25221 24946,25318 "/>
    <polygon id="162" class="fil148" points="9884,7955 9994,7858 25131,25156 25020,25253 "/>
    <polygon id="163" class="fil149" points="9958,7890 10068,7793 25205,25092 25094,25189 "/>
    <polygon id="164" class="fil150" points="10031,7825 10142,7729 25278,25027 25168,25124 "/>
    <polygon id="165" class="fil151" points="10105,7761 10216,7664 25352,24963 25241,25059 "/>
    <polygon id="166" class="fil151" points="10179,7696 10290,7599 25426,24898 25315,24995 "/>
    <polygon id="167" class="fil152" points="10253,7632 10364,7535 25500,24833 25389,24930 "/>
    <polygon id="168" class="fil153" points="10327,7567 10437,7470 25574,24769 25463,24866 "/>
    <polygon id="169" class="fil154" points="10400,7502 10511,7406 25647,24704 25537,24801 "/>
    <polygon id="170" class="fil155" points="10474,7438 10585,7341 25721,24640 25611,24736 "/>
    <polygon id="171" class="fil156" points="10548,7373 10659,7276 25795,24575 25684,24672 "/>
    <polygon id="172" class="fil157" points="10622,7309 10733,7212 25869,24510 25758,24607 "/>
    <polygon id="173" class="fil158" points="10696,7244 10806,7147 25943,24446 25832,24543 "/>
    <polygon id="174" class="fil159" points="10770,7180 10880,7083 26017,24381 25906,24478 "/>
    <polygon id="175" class="fil160" points="10843,7115 10954,7018 26090,24317 25980,24413 "/>
    <polygon id="176" class="fil160" points="10917,7050 11028,6953 26164,24252 26053,24349 "/>
    <polygon id="177" class="fil161" points="10991,6986 11102,6889 26238,24187 26127,24284 "/>
    <polygon id="178" class="fil162" points="11065,6921 11176,6824 26312,24123 26201,24220 "/>
    <polygon id="179" class="fil163" points="11139,6857 11249,6760 26386,24058 26275,24155 "/>
    <polygon id="180" class="fil164" points="11213,6792 11323,6695 26459,23994 26349,24091 "/>
    <polygon id="181" class="fil165" points="11286,6727 11397,6630 26533,23929 26423,24026 "/>
    <polygon id="182" class="fil166" points="11360,6663 11471,6566 26607,23864 26496,23961 "/>
    <polygon id="183" class="fil167" points="11434,6598 11545,6501 26681,23800 26570,23897 "/>
    <polygon id="184" class="fil168" points="11508,6534 11619,6437 26755,23735 26644,23832 "/>
    <polygon id="185" class="fil169" points="11582,6469 11692,6372 26829,23671 26718,23768 "/>
    <polygon id="186" class="fil170" points="11655,6404 11766,6307 26902,23606 26792,23703 "/>
    <polygon id="187" class="fil171" points="11729,6340 11840,6243 26976,23541 26866,23638 "/>
    <polygon id="188" class="fil172" points="11803,6275 11914,6178 27050,23477 26939,23574 "/>
    <polygon id="189" class="fil173" points="11877,6211 11988,6114 27124,23412 27013,23509 "/>
    <polygon id="190" class="fil174" points="11951,6146 12061,6049 27198,23348 27087,23445 "/>
    <polygon id="191" class="fil175" points="12025,6081 12135,5985 27272,23283 27161,23380 "/>
    <polygon id="192" class="fil176" points="12098,6017 12209,5920 27345,23218 27235,23315 "/>
    <polygon id="193" class="fil177" points="12172,5952 12283,5855 27419,23154 27308,23251 "/>
    <polygon id="194" class="fil178" points="12246,5888 12357,5791 27493,23089 27382,23186 "/>
    <polygon id="195" class="fil178" points="12320,5823 12431,5726 27567,23025 27456,23122 "/>
    <polygon id="196" class="fil179" points="12394,5758 12504,5662 27641,22960 27530,23057 "/>
    <polygon id="197" class="fil180" points="12467,5694 12578,5597 27714,22896 27604,22992 "/>
    <polygon id="198" class="fil181" points="12541,5629 12652,5532 27788,22831 27678,22928 "/>
    <polygon id="199" class="fil182" points="12615,5565 12726,5468 27862,22766 27751,22863 "/>
    <polygon id="200" class="fil183" points="12689,5500 12800,5403 27936,22702 27825,22799 "/>
    <polygon id="201" class="fil184" points="12763,5435 12873,5339 28010,22637 27899,22734 "/>
    <polygon id="202" class="fil185" points="12837,5371 12947,5274 28084,22573 27973,22669 "/>
    <polygon id="203" class="fil186" points="12910,5306 13021,5209 28157,22508 28047,22605 "/>
    <polygon id="204" class="fil187" points="12984,5242 13095,5145 28231,22443 28120,22540 "/>
    <polygon id="205" class="fil188" points="13058,5177 13169,5080 28305,22379 28194,22476 "/>
    <polygon id="206" class="fil189" points="13132,5113 13243,5016 28379,22314 28268,22411 "/>
    <polygon id="207" class="fil190" points="13206,5048 13316,4951 28453,22250 28342,22346 "/>
    <polygon id="208" class="fil191" points="13280,4983 13390,4886 28526,22185 28416,22282 "/>
    <polygon id="209" class="fil192" points="13353,4919 13464,4822 28600,22120 28490,22217 "/>
    <polygon id="210" class="fil193" points="13427,4854 13538,4757 28674,22056 28563,22153 "/>
    <polygon id="211" class="fil194" points="13501,4790 13612,4693 28748,21991 28637,22088 "/>
    <polygon id="212" class="fil195" points="13575,4725 13686,4628 28822,21927 28711,22024 "/>
    <polygon id="213" class="fil196" points="13649,4660 13759,4563 28896,21862 28785,21959 "/>
    <polygon id="214" class="fil197" points="13722,4596 13833,4499 28969,21797 28859,21894 "/>
    <polygon id="215" class="fil198" points="13796,4531 13907,4434 29043,21733 28933,21830 "/>
    <polygon id="216" class="fil199" points="13870,4467 13981,4370 29117,21668 29006,21765 "/>
    <polygon id="217" class="fil200" points="13944,4402 14055,4305 29191,21604 29080,21701 "/>
    <polygon id="218" class="fil201" points="14018,4337 14128,4240 29265,21539 29154,21636 "/>
    <polygon id="219" class="fil202" points="14092,4273 14202,4176 29339,21474 29228,21571 "/>
    <polygon id="220" class="fil203" points="14165,4208 14276,4111 29412,21410 29302,21507 "/>
    <polygon id="221" class="fil204" points="14239,4144 14350,4047 29486,21345 29375,21442 "/>
    <polygon id="222" class="fil205" points="14313,4079 14424,3982 29560,21281 29449,21378 "/>
    <polygon id="223" class="fil206" points="14387,4014 14498,3918 29634,21216 29523,21313 "/>
    <polygon id="224" class="fil207" points="14461,3950 14571,3853 29708,21151 29597,21248 "/>
    <polygon id="225" class="fil208" points="14534,3885 14645,3788 29781,21087 29671,21184 "/>
    <polygon id="226" class="fil209" points="14608,3821 14719,3724 29855,21022 29745,21119 "/>
    <polygon id="227" class="fil210" points="14682,3756 14793,3659 29929,20958 29818,21055 "/>
    <polygon id="228" class="fil211" points="14756,3691 14867,3595 30003,20893 29892,20990 "/>
    <polygon id="229" class="fil212" points="14830,3627 14940,3530 30077,20829 29966,20925 "/>
    <polygon id="230" class="fil213" points="14904,3562 15014,3465 30151,20764 30040,20861 "/>
    <polygon id="231" class="fil214" points="14977,3498 15088,3401 30224,20699 30114,20796 "/>
    <polygon id="232" class="fil215" points="15051,3433 15162,3336 30298,20635 30187,20732 "/>
    <polygon id="233" class="fil216" points="15125,3368 15236,3272 30372,20570 30261,20667 "/>
    <polygon id="234" class="fil217" points="15199,3304 15310,3207 30446,20506 30335,20602 "/>
    <polygon id="235" class="fil218" points="15273,3239 15383,3142 30520,20441 30409,20538 "/>
    <polygon id="236" class="fil219" points="15347,3175 15457,3078 30593,20376 30483,20473 "/>
    <polygon id="237" class="fil220" points="15420,3110 15531,3013 30667,20312 30557,20409 "/>
    <polygon id="238" class="fil221" points="15494,3045 15605,2949 30741,20247 30630,20344 "/>
    <polygon id="239" class="fil222" points="15568,2981 15679,2884 30815,20183 30704,20279 "/>
    <polygon id="240" class="fil223" points="15642,2916 15753,2819 30889,20118 30778,20215 "/>
    <polygon id="241" class="fil224" points="15716,2852 15826,2755 30963,20053 30852,20150 "/>
    <polygon id="242" class="fil225" points="15789,2787 15900,2690 31036,19989 30926,20086 "/>
    <polygon id="243" class="fil226" points="15863,2723 15974,2626 31110,19924 31000,20021 "/>
    <polygon id="244" class="fil227" points="15937,2658 16048,2561 31184,19860 31073,19956 "/>
    <polygon id="245" class="fil228" points="16011,2593 16122,2496 31258,19795 31147,19892 "/>
    <polygon id="246" class="fil229" points="16085,2529 16195,2432 31332,19730 31221,19827 "/>
    <polygon id="247" class="fil230" points="16159,2464 16269,2367 31406,19666 31295,19763 "/>
    <polygon id="248" class="fil231" points="16232,2400 16343,2303 31479,19601 31369,19698 "/>
    <polygon id="249" class="fil232" points="16306,2335 16417,2238 31553,19537 31442,19634 "/>
    <polygon id="250" class="fil233" points="16380,2270 16491,2173 31627,19472 31516,19569 "/>
    <polygon id="251" class="fil234" points="16454,2206 16565,2109 31701,19407 31590,19504 "/>
    <polygon id="252" class="fil235" points="16528,2141 16638,2044 31775,19343 31664,19440 "/>
    <polygon id="253" class="fil236" points="16601,2077 16712,1980 31848,19278 31738,19375 "/>
    <polygon id="254" class="fil237" points="16675,2012 16786,1915 31922,19214 31812,19311 "/>
    <polygon id="255" class="fil238" points="16749,1947 17628,1178 32765,18477 31885,19246 "/>
   </g>
  </g>
  <circle class="fil239 str0" cx="22146" cy="15845" r="2184"/>
  <circle class="fil240 str0" cx="22146" cy="15845" r="1092"/>
 </g>
</svg>
