<?xml version="1.0" encoding="UTF-8"?>
<!DOCTYPE svg PUBLIC "-//W3C//DTD SVG 1.1//EN" "http://www.w3.org/Graphics/SVG/1.1/DTD/svg11.dtd">
<!-- Creator: CorelDRAW X8 -->
<svg xmlns="http://www.w3.org/2000/svg" xml:space="preserve" width="297mm" height="420mm" version="1.1" style="shape-rendering:geometricPrecision; text-rendering:geometricPrecision; image-rendering:optimizeQuality; fill-rule:evenodd; clip-rule:evenodd"
viewBox="0 0 29700 42000"
 xmlns:xlink="http://www.w3.org/1999/xlink">
 <defs>
  <style type="text/css">
   <![CDATA[
    .str0 {stroke:white;stroke-width:16.93}
    .fil240 {fill:black}
    .fil1 {fill:#00CCFE}
    .fil0 {fill:#00CCFF}
    .fil5 {fill:#00CDF8}
    .fil4 {fill:#00CDFA}
    .fil3 {fill:#00CDFB}
    .fil2 {fill:#00CDFC}
    .fil9 {fill:#00CEF3}
    .fil8 {fill:#00CEF4}
    .fil7 {fill:#00CEF6}
    .fil6 {fill:#00CEF7}
    .fil13 {fill:#00CFEE}
    .fil12 {fill:#00CFEF}
    .fil11 {fill:#00CFF1}
    .fil10 {fill:#00CFF2}
    .fil17 {fill:#00D0E9}
    .fil16 {fill:#00D0EA}
    .fil15 {fill:#00D0EB}
    .fil14 {fill:#00D0ED}
    .fil21 {fill:#00D1E4}
    .fil20 {fill:#00D1E5}
    .fil19 {fill:#00D1E7}
    .fil18 {fill:#00D1E8}
    .fil25 {fill:#00D2DF}
    .fil24 {fill:#00D2E0}
    .fil23 {fill:#00D2E2}
    .fil22 {fill:#00D2E3}
    .fil29 {fill:#00D3DB}
    .fil28 {fill:#00D3DC}
    .fil27 {fill:#00D3DD}
    .fil26 {fill:#00D3DE}
    .fil34 {fill:#00D4D5}
    .fil33 {fill:#00D4D6}
    .fil32 {fill:#00D4D7}
    .fil31 {fill:#00D4D8}
    .fil30 {fill:#00D4D9}
    .fil38 {fill:#00D5D0}
    .fil37 {fill:#00D5D1}
    .fil36 {fill:#00D5D2}
    .fil35 {fill:#00D5D4}
    .fil43 {fill:#00D6CB}
    .fil42 {fill:#00D6CC}
    .fil41 {fill:#00D6CD}
    .fil40 {fill:#00D6CE}
    .fil39 {fill:#00D6CF}
    .fil47 {fill:#00D7C6}
    .fil46 {fill:#00D7C7}
    .fil45 {fill:#00D7C9}
    .fil44 {fill:#00D7CA}
    .fil52 {fill:#00D8C1}
    .fil51 {fill:#00D8C2}
    .fil50 {fill:#00D8C3}
    .fil49 {fill:#00D8C4}
    .fil48 {fill:#00D8C5}
    .fil57 {fill:#00D9BC}
    .fil56 {fill:#00D9BD}
    .fil55 {fill:#00D9BE}
    .fil54 {fill:#00D9BF}
    .fil53 {fill:#00D9C0}
    .fil62 {fill:#00DAB7}
    .fil61 {fill:#00DAB8}
    .fil60 {fill:#00DAB9}
    .fil59 {fill:#00DABA}
    .fil58 {fill:#00DABB}
    .fil67 {fill:#00DBB2}
    .fil66 {fill:#00DBB3}
    .fil65 {fill:#00DBB4}
    .fil64 {fill:#00DBB5}
    .fil63 {fill:#00DBB6}
    .fil72 {fill:#00DCAD}
    .fil71 {fill:#00DCAE}
    .fil70 {fill:#00DCAF}
    .fil69 {fill:#00DCB0}
    .fil68 {fill:#00DCB1}
    .fil77 {fill:#00DDA8}
    .fil76 {fill:#00DDA9}
    .fil75 {fill:#00DDAA}
    .fil74 {fill:#00DDAB}
    .fil73 {fill:#00DDAC}
    .fil82 {fill:#00DEA3}
    .fil81 {fill:#00DEA4}
    .fil80 {fill:#00DEA5}
    .fil79 {fill:#00DEA6}
    .fil78 {fill:#00DEA7}
    .fil87 {fill:#00DF9E}
    .fil86 {fill:#00DF9F}
    .fil85 {fill:#00DFA0}
    .fil84 {fill:#00DFA1}
    .fil83 {fill:#00DFA2}
    .fil92 {fill:#00E099}
    .fil91 {fill:#00E09A}
    .fil90 {fill:#00E09B}
    .fil89 {fill:#00E09C}
    .fil88 {fill:#00E09D}
    .fil97 {fill:#00E194}
    .fil96 {fill:#00E195}
    .fil95 {fill:#00E196}
    .fil94 {fill:#00E197}
    .fil93 {fill:#00E198}
    .fil102 {fill:#00E28F}
    .fil101 {fill:#00E290}
    .fil100 {fill:#00E291}
    .fil99 {fill:#00E292}
    .fil98 {fill:#00E293}
    .fil107 {fill:#00E38A}
    .fil106 {fill:#00E38B}
    .fil105 {fill:#00E38C}
    .fil104 {fill:#00E38D}
    .fil103 {fill:#00E38E}
    .fil112 {fill:#00E485}
    .fil111 {fill:#00E486}
    .fil110 {fill:#00E487}
    .fil109 {fill:#00E488}
    .fil108 {fill:#00E489}
    .fil117 {fill:#00E580}
    .fil116 {fill:#00E581}
    .fil115 {fill:#00E582}
    .fil114 {fill:#00E583}
    .fil113 {fill:#00E584}
    .fil122 {fill:#00E67B}
    .fil121 {fill:#00E67C}
    .fil120 {fill:#00E67D}
    .fil119 {fill:#00E67E}
    .fil118 {fill:#00E67F}
    .fil127 {fill:#00E776}
    .fil126 {fill:#00E777}
    .fil125 {fill:#00E778}
    .fil124 {fill:#00E779}
    .fil123 {fill:#00E77A}
    .fil132 {fill:#00E871}
    .fil131 {fill:#00E872}
    .fil130 {fill:#00E873}
    .fil129 {fill:#00E874}
    .fil128 {fill:#00E875}
    .fil137 {fill:#00E96C}
    .fil136 {fill:#00E96D}
    .fil135 {fill:#00E96E}
    .fil134 {fill:#00E96F}
    .fil133 {fill:#00E970}
    .fil142 {fill:#00EA67}
    .fil141 {fill:#00EA68}
    .fil140 {fill:#00EA69}
    .fil139 {fill:#00EA6A}
    .fil138 {fill:#00EA6B}
    .fil147 {fill:#00EB62}
    .fil146 {fill:#00EB63}
    .fil145 {fill:#00EB64}
    .fil144 {fill:#00EB65}
    .fil143 {fill:#00EB66}
    .fil152 {fill:#00EC5D}
    .fil151 {fill:#00EC5E}
    .fil150 {fill:#00EC5F}
    .fil149 {fill:#00EC60}
    .fil148 {fill:#00EC61}
    .fil157 {fill:#00ED58}
    .fil156 {fill:#00ED59}
    .fil155 {fill:#00ED5A}
    .fil154 {fill:#00ED5B}
    .fil153 {fill:#00ED5C}
    .fil162 {fill:#00EE53}
    .fil161 {fill:#00EE54}
    .fil160 {fill:#00EE55}
    .fil159 {fill:#00EE56}
    .fil158 {fill:#00EE57}
    .fil167 {fill:#00EF4E}
    .fil166 {fill:#00EF4F}
    .fil165 {fill:#00EF50}
    .fil164 {fill:#00EF51}
    .fil163 {fill:#00EF52}
    .fil172 {fill:#00F049}
    .fil171 {fill:#00F04A}
    .fil170 {fill:#00F04B}
    .fil169 {fill:#00F04C}
    .fil168 {fill:#00F04D}
    .fil177 {fill:#00F144}
    .fil176 {fill:#00F145}
    .fil175 {fill:#00F146}
    .fil174 {fill:#00F147}
    .fil173 {fill:#00F148}
    .fil182 {fill:#00F23F}
    .fil181 {fill:#00F240}
    .fil180 {fill:#00F241}
    .fil179 {fill:#00F242}
    .fil178 {fill:#00F243}
    .fil186 {fill:#00F33B}
    .fil185 {fill:#00F33C}
    .fil184 {fill:#00F33D}
    .fil183 {fill:#00F33E}
    .fil191 {fill:#00F435}
    .fil190 {fill:#00F436}
    .fil189 {fill:#00F437}
    .fil188 {fill:#00F438}
    .fil187 {fill:#00F439}
    .fil196 {fill:#00F530}
    .fil195 {fill:#00F531}
    .fil194 {fill:#00F532}
    .fil193 {fill:#00F533}
    .fil192 {fill:#00F534}
    .fil201 {fill:#00F62B}
    .fil200 {fill:#00F62C}
    .fil199 {fill:#00F62D}
    .fil198 {fill:#00F62E}
    .fil197 {fill:#00F62F}
    .fil205 {fill:#00F727}
    .fil204 {fill:#00F728}
    .fil203 {fill:#00F729}
    .fil202 {fill:#00F72A}
    .fil210 {fill:#00F821}
    .fil209 {fill:#00F822}
    .fil208 {fill:#00F823}
    .fil207 {fill:#00F824}
    .fil206 {fill:#00F825}
    .fil214 {fill:#00F91D}
    .fil213 {fill:#00F91E}
    .fil212 {fill:#00F91F}
    .fil211 {fill:#00F920}
    .fil219 {fill:#00FA17}
    .fil218 {fill:#00FA18}
    .fil217 {fill:#00FA19}
    .fil216 {fill:#00FA1A}
    .fil215 {fill:#00FA1B}
    .fil223 {fill:#00FB12}
    .fil222 {fill:#00FB13}
    .fil221 {fill:#00FB14}
    .fil220 {fill:#00FB16}
    .fil227 {fill:#00FC0D}
    .fil226 {fill:#00FC0F}
    .fil225 {fill:#00FC10}
    .fil224 {fill:#00FC11}
    .fil231 {fill:#00FD09}
    .fil230 {fill:#00FD0A}
    .fil229 {fill:#00FD0B}
    .fil228 {fill:#00FD0C}
    .fil235 {fill:#00FE04}
    .fil234 {fill:#00FE05}
    .fil233 {fill:#00FE06}
    .fil232 {fill:#00FE07}
    .fil238 {fill:lime}
    .fil237 {fill:#00FF01}
    .fil236 {fill:#00FF02}
    .fil239 {fill:white}
    .fil241 {fill:url(#id1);fill-rule:nonzero}
   ]]>
  </style>
    <clipPath id="id0">
     <path d="M13036 12080c-3520,0 -6375,2854 -6375,6375 0,3521 2855,6376 6375,6376l0 -1c2333,-38 4282,-1888 4813,-4373 -43,164 -111,316 -198,452 -426,826 -1227,1382 -2144,1382 -1365,0 -2471,-1229 -2471,-2745l0 -1091 6376 0 1912 0c0,-4573 -3703,-8280 -8275,-8287 -4,0 -8,0 -13,0l0 1912z"/>
    </clipPath>
  <linearGradient id="id1" gradientUnits="userSpaceOnUse" x1="12417" y1="33965.8" x2="17410.5" y2="23125.8">
   <stop offset="0" style="stop-opacity:1; stop-color:#00CCFF"/>
   <stop offset="0.541176" style="stop-opacity:1; stop-color:#00E580"/>
   <stop offset="1" style="stop-opacity:1; stop-color:lime"/>
  </linearGradient>
 </defs>
 <g id="Camada_x0020_1">
  <metadata id="CorelCorpID_0Corel-Layer"/>
  <g>
   <g style="clip-path:url(#id0)">
    <polygon class="fil0" points="2995,17786 3870,17020 12708,27121 11833,27887 "/>
    <polygon id="1" class="fil1" points="3848,17039 3913,16982 12751,27083 12687,27140 "/>
    <polygon id="2" class="fil2" points="3891,17001 3956,16945 12794,27046 12730,27102 "/>
    <polygon id="3" class="fil3" points="3934,16964 3999,16907 12837,27008 12773,27064 "/>
    <polygon id="4" class="fil4" points="3978,16926 4042,16869 12881,26970 12816,27027 "/>
    <polygon id="5" class="fil5" points="4021,16888 4085,16831 12924,26932 12859,26989 "/>
    <polygon id="6" class="fil6" points="4064,16850 4128,16794 12967,26895 12902,26951 "/>
    <polygon id="7" class="fil7" points="4107,16813 4172,16756 13010,26857 12945,26914 "/>
    <polygon id="8" class="fil8" points="4150,16775 4215,16718 13053,26819 12988,26876 "/>
    <polygon id="9" class="fil9" points="4193,16737 4258,16681 13096,26782 13031,26838 "/>
    <polygon id="10" class="fil10" points="4236,16699 4301,16643 13139,26744 13075,26800 "/>
    <polygon id="11" class="fil11" points="4279,16662 4344,16605 13182,26706 13118,26763 "/>
    <polygon id="12" class="fil12" points="4322,16624 4387,16567 13225,26668 13161,26725 "/>
    <polygon id="13" class="fil13" points="4366,16586 4430,16530 13269,26631 13204,26687 "/>
    <polygon id="14" class="fil14" points="4409,16549 4473,16492 13312,26593 13247,26650 "/>
    <polygon id="15" class="fil15" points="4452,16511 4516,16454 13355,26555 13290,26612 "/>
    <polygon id="16" class="fil16" points="4495,16473 4560,16417 13398,26518 13333,26574 "/>
    <polygon id="17" class="fil17" points="4538,16435 4603,16379 13441,26480 13376,26536 "/>
    <polygon id="18" class="fil18" points="4581,16398 4646,16341 13484,26442 13419,26499 "/>
    <polygon id="19" class="fil19" points="4624,16360 4689,16303 13527,26404 13462,26461 "/>
    <polygon id="20" class="fil20" points="4667,16322 4732,16266 13570,26367 13506,26423 "/>
    <polygon id="21" class="fil21" points="4710,16285 4775,16228 13613,26329 13549,26385 "/>
    <polygon id="22" class="fil22" points="4753,16247 4818,16190 13656,26291 13592,26348 "/>
    <polygon id="23" class="fil23" points="4797,16209 4861,16153 13700,26253 13635,26310 "/>
    <polygon id="24" class="fil24" points="4840,16171 4904,16115 13743,26216 13678,26272 "/>
    <polygon id="25" class="fil25" points="4883,16134 4947,16077 13786,26178 13721,26235 "/>
    <polygon id="26" class="fil26" points="4926,16096 4991,16039 13829,26140 13764,26197 "/>
    <polygon id="27" class="fil27" points="4969,16058 5034,16002 13872,26103 13807,26159 "/>
    <polygon id="28" class="fil28" points="5012,16021 5077,15964 13915,26065 13850,26121 "/>
    <polygon id="29" class="fil29" points="5055,15983 5120,15926 13958,26027 13894,26084 "/>
    <polygon id="30" class="fil30" points="5098,15945 5163,15889 14001,25989 13937,26046 "/>
    <polygon id="31" class="fil31" points="5141,15907 5206,15851 14044,25952 13980,26008 "/>
    <polygon id="32" class="fil32" points="5185,15870 5249,15813 14088,25914 14023,25971 "/>
    <polygon id="33" class="fil33" points="5228,15832 5292,15775 14131,25876 14066,25933 "/>
    <polygon id="34" class="fil34" points="5271,15794 5335,15738 14174,25839 14109,25895 "/>
    <polygon id="35" class="fil35" points="5314,15757 5379,15700 14217,25801 14152,25857 "/>
    <polygon id="36" class="fil36" points="5357,15719 5422,15662 14260,25763 14195,25820 "/>
    <polygon id="37" class="fil37" points="5400,15681 5465,15625 14303,25725 14238,25782 "/>
    <polygon id="38" class="fil38" points="5443,15643 5508,15587 14346,25688 14281,25744 "/>
    <polygon id="39" class="fil39" points="5486,15606 5551,15549 14389,25650 14325,25707 "/>
    <polygon id="40" class="fil40" points="5529,15568 5594,15511 14432,25612 14368,25669 "/>
    <polygon id="41" class="fil41" points="5573,15530 5637,15474 14475,25575 14411,25631 "/>
    <polygon id="42" class="fil42" points="5616,15493 5680,15436 14519,25537 14454,25593 "/>
    <polygon id="43" class="fil43" points="5659,15455 5723,15398 14562,25499 14497,25556 "/>
    <polygon id="44" class="fil44" points="5702,15417 5766,15361 14605,25461 14540,25518 "/>
    <polygon id="45" class="fil45" points="5745,15379 5810,15323 14648,25424 14583,25480 "/>
    <polygon id="46" class="fil46" points="5788,15342 5853,15285 14691,25386 14626,25443 "/>
    <polygon id="47" class="fil47" points="5831,15304 5896,15247 14734,25348 14669,25405 "/>
    <polygon id="48" class="fil48" points="5874,15266 5939,15210 14777,25311 14713,25367 "/>
    <polygon id="49" class="fil49" points="5917,15229 5982,15172 14820,25273 14756,25329 "/>
    <polygon id="50" class="fil50" points="5960,15191 6025,15134 14863,25235 14799,25292 "/>
    <polygon id="51" class="fil51" points="6004,15153 6068,15096 14907,25197 14842,25254 "/>
    <polygon id="52" class="fil52" points="6047,15115 6111,15059 14950,25160 14885,25216 "/>
    <polygon id="53" class="fil53" points="6090,15078 6154,15021 14993,25122 14928,25179 "/>
    <polygon id="54" class="fil54" points="6133,15040 6198,14983 15036,25084 14971,25141 "/>
    <polygon id="55" class="fil55" points="6176,15002 6241,14946 15079,25047 15014,25103 "/>
    <polygon id="56" class="fil56" points="6219,14964 6284,14908 15122,25009 15057,25065 "/>
    <polygon id="57" class="fil57" points="6262,14927 6327,14870 15165,24971 15100,25028 "/>
    <polygon id="58" class="fil58" points="6305,14889 6370,14832 15208,24933 15144,24990 "/>
    <polygon id="59" class="fil59" points="6348,14851 6413,14795 15251,24896 15187,24952 "/>
    <polygon id="60" class="fil60" points="6392,14814 6456,14757 15294,24858 15230,24915 "/>
    <polygon id="61" class="fil61" points="6435,14776 6499,14719 15338,24820 15273,24877 "/>
    <polygon id="62" class="fil62" points="6478,14738 6542,14682 15381,24783 15316,24839 "/>
    <polygon id="63" class="fil63" points="6521,14700 6585,14644 15424,24745 15359,24801 "/>
    <polygon id="64" class="fil64" points="6564,14663 6629,14606 15467,24707 15402,24764 "/>
    <polygon id="65" class="fil65" points="6607,14625 6672,14568 15510,24669 15445,24726 "/>
    <polygon id="66" class="fil66" points="6650,14587 6715,14531 15553,24632 15488,24688 "/>
    <polygon id="67" class="fil67" points="6693,14550 6758,14493 15596,24594 15532,24650 "/>
    <polygon id="68" class="fil68" points="6736,14512 6801,14455 15639,24556 15575,24613 "/>
    <polygon id="69" class="fil69" points="6779,14474 6844,14418 15682,24518 15618,24575 "/>
    <polygon id="70" class="fil70" points="6823,14436 6887,14380 15726,24481 15661,24537 "/>
    <polygon id="71" class="fil71" points="6866,14399 6930,14342 15769,24443 15704,24500 "/>
    <polygon id="72" class="fil72" points="6909,14361 6973,14304 15812,24405 15747,24462 "/>
    <polygon id="73" class="fil73" points="6952,14323 7017,14267 15855,24368 15790,24424 "/>
    <polygon id="74" class="fil74" points="6995,14286 7060,14229 15898,24330 15833,24386 "/>
    <polygon id="75" class="fil75" points="7038,14248 7103,14191 15941,24292 15876,24349 "/>
    <polygon id="76" class="fil76" points="7081,14210 7146,14154 15984,24254 15919,24311 "/>
    <polygon id="77" class="fil77" points="7124,14172 7189,14116 16027,24217 15963,24273 "/>
    <polygon id="78" class="fil78" points="7167,14135 7232,14078 16070,24179 16006,24236 "/>
    <polygon id="79" class="fil79" points="7211,14097 7275,14040 16113,24141 16049,24198 "/>
    <polygon id="80" class="fil80" points="7254,14059 7318,14003 16157,24104 16092,24160 "/>
    <polygon id="81" class="fil80" points="7297,14022 7361,13965 16200,24066 16135,24122 "/>
    <polygon id="82" class="fil81" points="7340,13984 7404,13927 16243,24028 16178,24085 "/>
    <polygon id="83" class="fil82" points="7383,13946 7448,13890 16286,23990 16221,24047 "/>
    <polygon id="84" class="fil83" points="7426,13908 7491,13852 16329,23953 16264,24009 "/>
    <polygon id="85" class="fil84" points="7469,13871 7534,13814 16372,23915 16307,23972 "/>
    <polygon id="86" class="fil85" points="7512,13833 7577,13776 16415,23877 16351,23934 "/>
    <polygon id="87" class="fil86" points="7555,13795 7620,13739 16458,23840 16394,23896 "/>
    <polygon id="88" class="fil87" points="7598,13758 7663,13701 16501,23802 16437,23858 "/>
    <polygon id="89" class="fil88" points="7642,13720 7706,13663 16545,23764 16480,23821 "/>
    <polygon id="90" class="fil89" points="7685,13682 7749,13626 16588,23726 16523,23783 "/>
    <polygon id="91" class="fil89" points="7728,13644 7792,13588 16631,23689 16566,23745 "/>
    <polygon id="92" class="fil90" points="7771,13607 7836,13550 16674,23651 16609,23708 "/>
    <polygon id="93" class="fil91" points="7814,13569 7879,13512 16717,23613 16652,23670 "/>
    <polygon id="94" class="fil92" points="7857,13531 7922,13475 16760,23576 16695,23632 "/>
    <polygon id="95" class="fil93" points="7900,13493 7965,13437 16803,23538 16739,23594 "/>
    <polygon id="96" class="fil94" points="7943,13456 8008,13399 16846,23500 16782,23557 "/>
    <polygon id="97" class="fil95" points="7986,13418 8051,13361 16889,23462 16825,23519 "/>
    <polygon id="98" class="fil96" points="8030,13380 8094,13324 16932,23425 16868,23481 "/>
    <polygon id="99" class="fil96" points="8073,13343 8137,13286 16976,23387 16911,23444 "/>
    <polygon id="100" class="fil97" points="8116,13305 8180,13248 17019,23349 16954,23406 "/>
    <polygon id="101" class="fil98" points="8159,13267 8223,13211 17062,23312 16997,23368 "/>
    <polygon id="102" class="fil99" points="8202,13229 8267,13173 17105,23274 17040,23330 "/>
    <polygon id="103" class="fil100" points="8245,13192 8310,13135 17148,23236 17083,23293 "/>
    <polygon id="104" class="fil101" points="8288,13154 8353,13097 17191,23198 17126,23255 "/>
    <polygon id="105" class="fil102" points="8331,13116 8396,13060 17234,23161 17170,23217 "/>
    <polygon id="106" class="fil102" points="8374,13079 8439,13022 17277,23123 17213,23180 "/>
    <polygon id="107" class="fil103" points="8417,13041 8482,12984 17320,23085 17256,23142 "/>
    <polygon id="108" class="fil104" points="8461,13003 8525,12947 17364,23048 17299,23104 "/>
    <polygon id="109" class="fil105" points="8504,12965 8568,12909 17407,23010 17342,23066 "/>
    <polygon id="110" class="fil106" points="8547,12928 8611,12871 17450,22972 17385,23029 "/>
    <polygon id="111" class="fil106" points="8590,12890 8655,12833 17493,22934 17428,22991 "/>
    <polygon id="112" class="fil107" points="8633,12852 8698,12796 17536,22897 17471,22953 "/>
    <polygon id="113" class="fil108" points="8676,12815 8741,12758 17579,22859 17514,22915 "/>
    <polygon id="114" class="fil109" points="8719,12777 8784,12720 17622,22821 17558,22878 "/>
    <polygon id="115" class="fil110" points="8762,12739 8827,12683 17665,22783 17601,22840 "/>
    <polygon id="116" class="fil110" points="8805,12701 8870,12645 17708,22746 17644,22802 "/>
    <polygon id="117" class="fil111" points="8849,12664 8913,12607 17751,22708 17687,22765 "/>
    <polygon id="118" class="fil112" points="8892,12626 8956,12569 17795,22670 17730,22727 "/>
    <polygon id="119" class="fil113" points="8935,12588 8999,12532 17838,22633 17773,22689 "/>
    <polygon id="120" class="fil114" points="8978,12551 9043,12494 17881,22595 17816,22651 "/>
    <polygon id="121" class="fil114" points="9021,12513 9086,12456 17924,22557 17859,22614 "/>
    <polygon id="122" class="fil115" points="9064,12475 9129,12419 17967,22519 17902,22576 "/>
    <polygon id="123" class="fil116" points="9107,12437 9172,12381 18010,22482 17945,22538 "/>
    <polygon id="124" class="fil117" points="9150,12400 9215,12343 18053,22444 17989,22501 "/>
    <polygon id="125" class="fil118" points="9193,12362 9258,12305 18096,22406 18032,22463 "/>
    <polygon id="126" class="fil118" points="9236,12324 9301,12268 18139,22369 18075,22425 "/>
    <polygon id="127" class="fil119" points="9280,12287 9344,12230 18183,22331 18118,22387 "/>
    <polygon id="128" class="fil120" points="9323,12249 9387,12192 18226,22293 18161,22350 "/>
    <polygon id="129" class="fil121" points="9366,12211 9430,12155 18269,22255 18204,22312 "/>
    <polygon id="130" class="fil121" points="9409,12173 9474,12117 18312,22218 18247,22274 "/>
    <polygon id="131" class="fil122" points="9452,12136 9517,12079 18355,22180 18290,22237 "/>
    <polygon id="132" class="fil123" points="9495,12098 9560,12041 18398,22142 18333,22199 "/>
    <polygon id="133" class="fil124" points="9538,12060 9603,12004 18441,22105 18377,22161 "/>
    <polygon id="134" class="fil125" points="9581,12023 9646,11966 18484,22067 18420,22123 "/>
    <polygon id="135" class="fil125" points="9624,11985 9689,11928 18527,22029 18463,22086 "/>
    <polygon id="136" class="fil126" points="9668,11947 9732,11891 18570,21991 18506,22048 "/>
    <polygon id="137" class="fil127" points="9711,11909 9775,11853 18614,21954 18549,22010 "/>
    <polygon id="138" class="fil128" points="9754,11872 9818,11815 18657,21916 18592,21973 "/>
    <polygon id="139" class="fil129" points="9797,11834 9862,11777 18700,21878 18635,21935 "/>
    <polygon id="140" class="fil129" points="9840,11796 9905,11740 18743,21841 18678,21897 "/>
    <polygon id="141" class="fil130" points="9883,11758 9948,11702 18786,21803 18721,21859 "/>
    <polygon id="142" class="fil131" points="9926,11721 9991,11664 18829,21765 18764,21822 "/>
    <polygon id="143" class="fil132" points="9969,11683 10034,11626 18872,21727 18808,21784 "/>
    <polygon id="144" class="fil133" points="10012,11645 10077,11589 18915,21690 18851,21746 "/>
    <polygon id="145" class="fil133" points="10055,11608 10120,11551 18958,21652 18894,21709 "/>
    <polygon id="146" class="fil134" points="10099,11570 10163,11513 19002,21614 18937,21671 "/>
    <polygon id="147" class="fil135" points="10142,11532 10206,11476 19045,21577 18980,21633 "/>
    <polygon id="148" class="fil136" points="10185,11494 10249,11438 19088,21539 19023,21595 "/>
    <polygon id="149" class="fil137" points="10228,11457 10293,11400 19131,21501 19066,21558 "/>
    <polygon id="150" class="fil138" points="10271,11419 10336,11362 19174,21463 19109,21520 "/>
    <polygon id="151" class="fil138" points="10314,11381 10379,11325 19217,21426 19152,21482 "/>
    <polygon id="152" class="fil139" points="10357,11344 10422,11287 19260,21388 19196,21445 "/>
    <polygon id="153" class="fil140" points="10400,11306 10465,11249 19303,21350 19239,21407 "/>
    <polygon id="154" class="fil141" points="10443,11268 10508,11212 19346,21313 19282,21369 "/>
    <polygon id="155" class="fil142" points="10487,11230 10551,11174 19389,21275 19325,21331 "/>
    <polygon id="156" class="fil143" points="10530,11193 10594,11136 19433,21237 19368,21294 "/>
    <polygon id="157" class="fil144" points="10573,11155 10637,11098 19476,21199 19411,21256 "/>
    <polygon id="158" class="fil144" points="10616,11117 10681,11061 19519,21162 19454,21218 "/>
    <polygon id="159" class="fil145" points="10659,11080 10724,11023 19562,21124 19497,21180 "/>
    <polygon id="160" class="fil146" points="10702,11042 10767,10985 19605,21086 19540,21143 "/>
    <polygon id="161" class="fil147" points="10745,11004 10810,10948 19648,21048 19583,21105 "/>
    <polygon id="162" class="fil148" points="10788,10966 10853,10910 19691,21011 19627,21067 "/>
    <polygon id="163" class="fil149" points="10831,10929 10896,10872 19734,20973 19670,21030 "/>
    <polygon id="164" class="fil150" points="10874,10891 10939,10834 19777,20935 19713,20992 "/>
    <polygon id="165" class="fil151" points="10918,10853 10982,10797 19821,20898 19756,20954 "/>
    <polygon id="166" class="fil151" points="10961,10816 11025,10759 19864,20860 19799,20916 "/>
    <polygon id="167" class="fil152" points="11004,10778 11068,10721 19907,20822 19842,20879 "/>
    <polygon id="168" class="fil153" points="11047,10740 11112,10684 19950,20784 19885,20841 "/>
    <polygon id="169" class="fil154" points="11090,10702 11155,10646 19993,20747 19928,20803 "/>
    <polygon id="170" class="fil155" points="11133,10665 11198,10608 20036,20709 19971,20766 "/>
    <polygon id="171" class="fil156" points="11176,10627 11241,10570 20079,20671 20015,20728 "/>
    <polygon id="172" class="fil157" points="11219,10589 11284,10533 20122,20634 20058,20690 "/>
    <polygon id="173" class="fil158" points="11262,10552 11327,10495 20165,20596 20101,20652 "/>
    <polygon id="174" class="fil159" points="11306,10514 11370,10457 20209,20558 20144,20615 "/>
    <polygon id="175" class="fil160" points="11349,10476 11413,10420 20252,20520 20187,20577 "/>
    <polygon id="176" class="fil160" points="11392,10438 11456,10382 20295,20483 20230,20539 "/>
    <polygon id="177" class="fil161" points="11435,10401 11500,10344 20338,20445 20273,20502 "/>
    <polygon id="178" class="fil162" points="11478,10363 11543,10306 20381,20407 20316,20464 "/>
    <polygon id="179" class="fil163" points="11521,10325 11586,10269 20424,20370 20359,20426 "/>
    <polygon id="180" class="fil164" points="11564,10288 11629,10231 20467,20332 20402,20388 "/>
    <polygon id="181" class="fil165" points="11607,10250 11672,10193 20510,20294 20446,20351 "/>
    <polygon id="182" class="fil166" points="11650,10212 11715,10156 20553,20256 20489,20313 "/>
    <polygon id="183" class="fil167" points="11694,10174 11758,10118 20596,20219 20532,20275 "/>
    <polygon id="184" class="fil168" points="11737,10137 11801,10080 20640,20181 20575,20238 "/>
    <polygon id="185" class="fil169" points="11780,10099 11844,10042 20683,20143 20618,20200 "/>
    <polygon id="186" class="fil170" points="11823,10061 11887,10005 20726,20106 20661,20162 "/>
    <polygon id="187" class="fil171" points="11866,10023 11931,9967 20769,20068 20704,20124 "/>
    <polygon id="188" class="fil172" points="11909,9986 11974,9929 20812,20030 20747,20087 "/>
    <polygon id="189" class="fil173" points="11952,9948 12017,9891 20855,19992 20790,20049 "/>
    <polygon id="190" class="fil174" points="11995,9910 12060,9854 20898,19955 20834,20011 "/>
    <polygon id="191" class="fil175" points="12038,9873 12103,9816 20941,19917 20877,19974 "/>
    <polygon id="192" class="fil176" points="12081,9835 12146,9778 20984,19879 20920,19936 "/>
    <polygon id="193" class="fil177" points="12125,9797 12189,9741 21028,19842 20963,19898 "/>
    <polygon id="194" class="fil178" points="12168,9759 12232,9703 21071,19804 21006,19860 "/>
    <polygon id="195" class="fil178" points="12211,9722 12275,9665 21114,19766 21049,19823 "/>
    <polygon id="196" class="fil179" points="12254,9684 12319,9627 21157,19728 21092,19785 "/>
    <polygon id="197" class="fil180" points="12297,9646 12362,9590 21200,19691 21135,19747 "/>
    <polygon id="198" class="fil181" points="12340,9609 12405,9552 21243,19653 21178,19710 "/>
    <polygon id="199" class="fil182" points="12383,9571 12448,9514 21286,19615 21221,19672 "/>
    <polygon id="200" class="fil183" points="12426,9533 12491,9477 21329,19578 21265,19634 "/>
    <polygon id="201" class="fil184" points="12469,9495 12534,9439 21372,19540 21308,19596 "/>
    <polygon id="202" class="fil185" points="12513,9458 12577,9401 21415,19502 21351,19559 "/>
    <polygon id="203" class="fil186" points="12556,9420 12620,9363 21459,19464 21394,19521 "/>
    <polygon id="204" class="fil187" points="12599,9382 12663,9326 21502,19427 21437,19483 "/>
    <polygon id="205" class="fil188" points="12642,9345 12706,9288 21545,19389 21480,19445 "/>
    <polygon id="206" class="fil189" points="12685,9307 12750,9250 21588,19351 21523,19408 "/>
    <polygon id="207" class="fil190" points="12728,9269 12793,9213 21631,19313 21566,19370 "/>
    <polygon id="208" class="fil191" points="12771,9231 12836,9175 21674,19276 21609,19332 "/>
    <polygon id="209" class="fil192" points="12814,9194 12879,9137 21717,19238 21653,19295 "/>
    <polygon id="210" class="fil193" points="12857,9156 12922,9099 21760,19200 21696,19257 "/>
    <polygon id="211" class="fil194" points="12900,9118 12965,9062 21803,19163 21739,19219 "/>
    <polygon id="212" class="fil195" points="12944,9081 13008,9024 21847,19125 21782,19181 "/>
    <polygon id="213" class="fil196" points="12987,9043 13051,8986 21890,19087 21825,19144 "/>
    <polygon id="214" class="fil197" points="13030,9005 13094,8949 21933,19049 21868,19106 "/>
    <polygon id="215" class="fil198" points="13073,8967 13138,8911 21976,19012 21911,19068 "/>
    <polygon id="216" class="fil199" points="13116,8930 13181,8873 22019,18974 21954,19031 "/>
    <polygon id="217" class="fil200" points="13159,8892 13224,8835 22062,18936 21997,18993 "/>
    <polygon id="218" class="fil201" points="13202,8854 13267,8798 22105,18899 22040,18955 "/>
    <polygon id="219" class="fil202" points="13245,8817 13310,8760 22148,18861 22084,18917 "/>
    <polygon id="220" class="fil203" points="13288,8779 13353,8722 22191,18823 22127,18880 "/>
    <polygon id="221" class="fil204" points="13332,8741 13396,8685 22234,18785 22170,18842 "/>
    <polygon id="222" class="fil205" points="13375,8703 13439,8647 22278,18748 22213,18804 "/>
    <polygon id="223" class="fil206" points="13418,8666 13482,8609 22321,18710 22256,18767 "/>
    <polygon id="224" class="fil207" points="13461,8628 13525,8571 22364,18672 22299,18729 "/>
    <polygon id="225" class="fil208" points="13504,8590 13569,8534 22407,18635 22342,18691 "/>
    <polygon id="226" class="fil209" points="13547,8553 13612,8496 22450,18597 22385,18653 "/>
    <polygon id="227" class="fil210" points="13590,8515 13655,8458 22493,18559 22428,18616 "/>
    <polygon id="228" class="fil211" points="13633,8477 13698,8421 22536,18521 22472,18578 "/>
    <polygon id="229" class="fil212" points="13676,8439 13741,8383 22579,18484 22515,18540 "/>
    <polygon id="230" class="fil213" points="13719,8402 13784,8345 22622,18446 22558,18503 "/>
    <polygon id="231" class="fil214" points="13763,8364 13827,8307 22666,18408 22601,18465 "/>
    <polygon id="232" class="fil215" points="13806,8326 13870,8270 22709,18371 22644,18427 "/>
    <polygon id="233" class="fil216" points="13849,8288 13913,8232 22752,18333 22687,18389 "/>
    <polygon id="234" class="fil217" points="13892,8251 13957,8194 22795,18295 22730,18352 "/>
    <polygon id="235" class="fil218" points="13935,8213 14000,8156 22838,18257 22773,18314 "/>
    <polygon id="236" class="fil219" points="13978,8175 14043,8119 22881,18220 22816,18276 "/>
    <polygon id="237" class="fil220" points="14021,8138 14086,8081 22924,18182 22859,18239 "/>
    <polygon id="238" class="fil221" points="14064,8100 14129,8043 22967,18144 22903,18201 "/>
    <polygon id="239" class="fil222" points="14107,8062 14172,8006 23010,18107 22946,18163 "/>
    <polygon id="240" class="fil223" points="14151,8024 14215,7968 23053,18069 22989,18125 "/>
    <polygon id="241" class="fil224" points="14194,7987 14258,7930 23097,18031 23032,18088 "/>
    <polygon id="242" class="fil225" points="14237,7949 14301,7892 23140,17993 23075,18050 "/>
    <polygon id="243" class="fil226" points="14280,7911 14344,7855 23183,17956 23118,18012 "/>
    <polygon id="244" class="fil227" points="14323,7874 14388,7817 23226,17918 23161,17975 "/>
    <polygon id="245" class="fil228" points="14366,7836 14431,7779 23269,17880 23204,17937 "/>
    <polygon id="246" class="fil229" points="14409,7798 14474,7742 23312,17843 23247,17899 "/>
    <polygon id="247" class="fil230" points="14452,7760 14517,7704 23355,17805 23291,17861 "/>
    <polygon id="248" class="fil231" points="14495,7723 14560,7666 23398,17767 23334,17824 "/>
    <polygon id="249" class="fil232" points="14538,7685 14603,7628 23441,17729 23377,17786 "/>
    <polygon id="250" class="fil233" points="14582,7647 14646,7591 23485,17692 23420,17748 "/>
    <polygon id="251" class="fil234" points="14625,7610 14689,7553 23528,17654 23463,17710 "/>
    <polygon id="252" class="fil235" points="14668,7572 14732,7515 23571,17616 23506,17673 "/>
    <polygon id="253" class="fil236" points="14711,7534 14776,7478 23614,17578 23549,17635 "/>
    <polygon id="254" class="fil237" points="14754,7496 14819,7440 23657,17541 23592,17597 "/>
    <polygon id="255" class="fil238" points="14797,7459 15310,7010 24149,17110 23635,17560 "/>
   </g>
  </g>
  <circle class="fil239 str0" cx="17948" cy="15574" r="1275"/>
  <circle class="fil240 str0" cx="17948" cy="15574" r="638"/>
  <path class="fil241" d="M4651 30120c-178,154 -379,272 -601,355 -222,83 -452,124 -691,124 -182,0 -358,-24 -528,-72 -169,-47 -328,-114 -475,-202 -148,-86 -283,-190 -405,-312 -122,-122 -226,-257 -313,-405 -86,-147 -153,-306 -201,-475 -48,-169 -72,-346 -72,-528 0,-183 24,-360 72,-529 48,-171 115,-329 201,-477 87,-148 191,-283 313,-405 122,-122 257,-226 405,-312 147,-87 306,-154 475,-202 170,-48 346,-72 528,-72 239,0 469,42 691,122 222,82 423,201 601,357l-408 671c-112,-122 -246,-215 -400,-280 -155,-65 -315,-98 -484,-98 -170,0 -329,32 -478,96 -149,65 -278,152 -389,262 -111,110 -199,241 -264,390 -65,150 -97,308 -97,477 0,169 32,326 97,474 65,148 153,277 264,388 111,112 240,199 389,264 149,64 308,96 478,96 169,0 329,-33 484,-98 154,-65 288,-158 400,-280l408 671zm1102 395l-733 0 0 -4022 733 0 0 1271c88,-66 179,-114 271,-141 94,-28 189,-42 286,-42 177,0 344,33 499,101 156,67 292,159 408,276 115,118 206,255 274,412 67,157 100,324 100,501l0 1644 -738 0 0 -1644 5 0c0,-75 -15,-147 -43,-214 -29,-67 -68,-125 -118,-176 -51,-49 -109,-89 -176,-118 -66,-29 -136,-43 -211,-43 -77,0 -150,14 -218,43 -69,29 -127,69 -178,118 -49,51 -89,109 -118,176 -28,67 -43,139 -43,214l0 1644zm5146 0l-178 0 -284 -395c-70,63 -144,122 -222,176 -78,55 -160,103 -246,142 -86,41 -174,73 -264,96 -91,24 -183,35 -276,35 -202,0 -393,-34 -571,-102 -179,-68 -334,-167 -467,-296 -134,-131 -239,-289 -316,-477 -77,-189 -115,-403 -115,-643 0,-224 38,-430 115,-617 77,-187 182,-347 316,-482 133,-134 288,-238 467,-313 178,-74 369,-112 571,-112 93,0 185,12 277,35 91,24 180,56 266,97 86,42 168,89 246,145 77,55 151,116 219,180l284 -341 178 0 0 2872zm-739 -1464c0,-100 -20,-198 -58,-292 -39,-94 -91,-177 -157,-249 -67,-73 -144,-132 -233,-175 -88,-44 -182,-66 -283,-66 -100,0 -195,17 -284,51 -88,35 -165,84 -231,150 -65,67 -116,149 -154,247 -37,97 -57,209 -57,334 0,125 20,237 57,334 38,98 89,180 154,246 66,66 143,117 231,151 89,34 184,51 284,51 101,0 195,-22 283,-66 89,-44 166,-102 233,-174 66,-73 118,-156 157,-251 38,-93 58,-190 58,-291zm4957 1464l-731 0 0 -1827c0,-50 -9,-98 -29,-142 -18,-45 -44,-84 -78,-118 -34,-34 -74,-61 -119,-80 -45,-18 -92,-28 -142,-28 -50,0 -97,10 -141,28 -44,19 -83,46 -116,80 -33,34 -59,73 -78,118 -19,44 -28,92 -28,142l0 1827 -734 0 0 -1827c0,-50 -9,-98 -27,-142 -20,-45 -46,-84 -80,-118 -34,-34 -73,-61 -118,-80 -45,-18 -92,-28 -143,-28 -50,0 -97,10 -141,28 -44,19 -82,46 -115,80 -33,34 -59,73 -78,118 -19,44 -29,92 -29,142l0 1827 -733 0 0 -2878 177 0 200 221c101,-86 214,-153 337,-200 122,-48 250,-71 382,-71 135,0 266,25 394,75 128,50 240,137 337,261 45,-62 96,-113 154,-156 56,-43 117,-78 181,-105 63,-27 129,-47 197,-58 68,-12 135,-17 202,-17 152,0 295,28 428,85 134,58 250,136 350,236 99,99 178,216 235,350 57,135 86,278 86,430l0 1827zm1679 -704c29,9 57,16 86,17 29,3 57,5 86,5 71,0 141,-10 207,-29 66,-21 128,-49 186,-86 59,-36 111,-81 156,-134 46,-53 83,-111 112,-176l537 541c-68,96 -146,183 -234,260 -89,77 -186,142 -288,196 -103,53 -211,95 -325,122 -114,28 -231,42 -351,42 -202,0 -393,-37 -571,-112 -179,-76 -335,-181 -468,-315 -133,-135 -238,-294 -315,-480 -77,-185 -116,-388 -116,-611 0,-228 39,-435 116,-623 77,-188 182,-349 315,-482 133,-132 289,-235 468,-309 178,-73 369,-110 571,-110 120,0 237,15 352,43 114,29 224,70 326,124 103,53 199,119 289,197 90,78 169,165 237,263l-1376 1657zm376 -1512c-34,-13 -68,-21 -101,-24 -33,-4 -68,-6 -103,-6 -100,0 -195,19 -284,55 -88,37 -165,89 -231,157 -65,68 -116,151 -154,246 -38,96 -57,204 -57,324 0,27 2,57 5,91 3,34 6,69 13,104 6,35 13,68 23,101 9,32 21,60 34,85l855 -1133zm2106 2216l-738 0 0 -4022 738 0 0 4022zm1704 -704c28,9 57,16 86,17 29,3 57,5 85,5 72,0 142,-10 208,-29 66,-21 128,-49 186,-86 59,-36 111,-81 156,-134 46,-53 83,-111 112,-176l537 541c-68,96 -147,183 -235,260 -89,77 -185,142 -288,196 -102,53 -211,95 -324,122 -114,28 -231,42 -352,42 -201,0 -392,-37 -570,-112 -179,-76 -335,-181 -468,-315 -134,-135 -238,-294 -315,-480 -77,-185 -116,-388 -116,-611 0,-228 39,-435 116,-623 77,-188 181,-349 315,-482 133,-132 289,-235 468,-309 178,-73 369,-110 570,-110 121,0 238,15 353,43 114,29 223,70 326,124 103,53 199,119 289,197 90,78 169,165 237,263l-1376 1657zm376 -1512c-34,-13 -68,-21 -101,-24 -33,-4 -68,-6 -104,-6 -100,0 -194,19 -283,55 -88,37 -165,89 -231,157 -65,68 -117,151 -154,246 -38,96 -57,204 -57,324 0,27 2,57 5,91 2,34 6,69 12,104 7,35 14,68 23,101 10,32 21,60 35,85l855 -1133zm4127 752c0,215 -38,415 -115,600 -78,186 -182,346 -315,481 -132,136 -288,242 -466,320 -178,78 -370,117 -574,117 -202,0 -393,-39 -571,-117 -178,-78 -333,-184 -467,-320 -133,-135 -239,-295 -316,-481 -77,-185 -115,-385 -115,-600 0,-219 38,-421 115,-607 77,-187 183,-347 316,-483 134,-135 289,-241 467,-318 178,-77 369,-116 571,-116 204,0 396,37 574,109 178,73 334,176 466,310 133,133 237,293 315,480 77,187 115,395 115,625zm-739 0c0,-119 -19,-225 -58,-321 -38,-96 -91,-178 -157,-247 -66,-70 -144,-122 -233,-159 -88,-36 -182,-55 -283,-55 -100,0 -195,19 -283,55 -89,37 -166,89 -232,159 -65,69 -116,151 -154,247 -37,96 -57,202 -57,321 0,111 20,214 57,309 38,95 89,178 154,247 66,70 143,125 232,165 88,41 183,61 283,61 101,0 195,-19 283,-57 89,-37 167,-90 233,-159 66,-67 119,-150 157,-246 39,-97 58,-204 58,-320zm1878 1464l-733 0 0 -2878 177 0 242 280c119,-107 253,-191 402,-248 150,-58 306,-88 469,-88 175,0 341,33 497,101 156,67 292,159 408,276 117,118 208,255 276,412 67,157 100,324 100,501l0 1644 -733 0 0 -1644c0,-75 -14,-147 -43,-214 -29,-67 -68,-125 -118,-176 -51,-49 -108,-89 -175,-118 -66,-29 -137,-43 -212,-43 -77,0 -150,14 -218,43 -68,29 -127,69 -177,118 -50,51 -89,109 -119,176 -28,67 -43,139 -43,214l0 1644z"/>
 </g>
</svg>
