<?xml version="1.0" encoding="UTF-8"?>
<!DOCTYPE svg PUBLIC "-//W3C//DTD SVG 1.1//EN" "http://www.w3.org/Graphics/SVG/1.1/DTD/svg11.dtd">
<!-- Creator: CorelDRAW X8 -->
<svg xmlns="http://www.w3.org/2000/svg" xml:space="preserve" width="650mm" height="200mm" version="1.1" style="shape-rendering:geometricPrecision; text-rendering:geometricPrecision; image-rendering:optimizeQuality; fill-rule:evenodd; clip-rule:evenodd"
viewBox="0 0 65000 20000"
 xmlns:xlink="http://www.w3.org/1999/xlink">
 <defs>
  <style type="text/css">
   <![CDATA[
    .str0 {stroke:white;stroke-width:16.93}
    .str1 {stroke:black;stroke-width:20}
    .fil242 {fill:none}
    .fil240 {fill:black}
    .fil1 {fill:#00CCFE}
    .fil0 {fill:#00CCFF}
    .fil5 {fill:#00CDF8}
    .fil4 {fill:#00CDFA}
    .fil3 {fill:#00CDFB}
    .fil2 {fill:#00CDFC}
    .fil9 {fill:#00CEF3}
    .fil8 {fill:#00CEF4}
    .fil7 {fill:#00CEF6}
    .fil6 {fill:#00CEF7}
    .fil13 {fill:#00CFEE}
    .fil12 {fill:#00CFEF}
    .fil11 {fill:#00CFF1}
    .fil10 {fill:#00CFF2}
    .fil17 {fill:#00D0E9}
    .fil16 {fill:#00D0EA}
    .fil15 {fill:#00D0EB}
    .fil14 {fill:#00D0ED}
    .fil21 {fill:#00D1E4}
    .fil20 {fill:#00D1E5}
    .fil19 {fill:#00D1E7}
    .fil18 {fill:#00D1E8}
    .fil25 {fill:#00D2DF}
    .fil24 {fill:#00D2E0}
    .fil23 {fill:#00D2E2}
    .fil22 {fill:#00D2E3}
    .fil29 {fill:#00D3DB}
    .fil28 {fill:#00D3DC}
    .fil27 {fill:#00D3DD}
    .fil26 {fill:#00D3DE}
    .fil34 {fill:#00D4D5}
    .fil33 {fill:#00D4D6}
    .fil32 {fill:#00D4D7}
    .fil31 {fill:#00D4D8}
    .fil30 {fill:#00D4D9}
    .fil38 {fill:#00D5D0}
    .fil37 {fill:#00D5D1}
    .fil36 {fill:#00D5D2}
    .fil35 {fill:#00D5D4}
    .fil43 {fill:#00D6CB}
    .fil42 {fill:#00D6CC}
    .fil41 {fill:#00D6CD}
    .fil40 {fill:#00D6CE}
    .fil39 {fill:#00D6CF}
    .fil47 {fill:#00D7C6}
    .fil46 {fill:#00D7C7}
    .fil45 {fill:#00D7C9}
    .fil44 {fill:#00D7CA}
    .fil52 {fill:#00D8C1}
    .fil51 {fill:#00D8C2}
    .fil50 {fill:#00D8C3}
    .fil49 {fill:#00D8C4}
    .fil48 {fill:#00D8C5}
    .fil57 {fill:#00D9BC}
    .fil56 {fill:#00D9BD}
    .fil55 {fill:#00D9BE}
    .fil54 {fill:#00D9BF}
    .fil53 {fill:#00D9C0}
    .fil62 {fill:#00DAB7}
    .fil61 {fill:#00DAB8}
    .fil60 {fill:#00DAB9}
    .fil59 {fill:#00DABA}
    .fil58 {fill:#00DABB}
    .fil67 {fill:#00DBB2}
    .fil66 {fill:#00DBB3}
    .fil65 {fill:#00DBB4}
    .fil64 {fill:#00DBB5}
    .fil63 {fill:#00DBB6}
    .fil72 {fill:#00DCAD}
    .fil71 {fill:#00DCAE}
    .fil70 {fill:#00DCAF}
    .fil69 {fill:#00DCB0}
    .fil68 {fill:#00DCB1}
    .fil77 {fill:#00DDA8}
    .fil76 {fill:#00DDA9}
    .fil75 {fill:#00DDAA}
    .fil74 {fill:#00DDAB}
    .fil73 {fill:#00DDAC}
    .fil82 {fill:#00DEA3}
    .fil81 {fill:#00DEA4}
    .fil80 {fill:#00DEA5}
    .fil79 {fill:#00DEA6}
    .fil78 {fill:#00DEA7}
    .fil87 {fill:#00DF9E}
    .fil86 {fill:#00DF9F}
    .fil85 {fill:#00DFA0}
    .fil84 {fill:#00DFA1}
    .fil83 {fill:#00DFA2}
    .fil92 {fill:#00E099}
    .fil91 {fill:#00E09A}
    .fil90 {fill:#00E09B}
    .fil89 {fill:#00E09C}
    .fil88 {fill:#00E09D}
    .fil97 {fill:#00E194}
    .fil96 {fill:#00E195}
    .fil95 {fill:#00E196}
    .fil94 {fill:#00E197}
    .fil93 {fill:#00E198}
    .fil102 {fill:#00E28F}
    .fil101 {fill:#00E290}
    .fil100 {fill:#00E291}
    .fil99 {fill:#00E292}
    .fil98 {fill:#00E293}
    .fil107 {fill:#00E38A}
    .fil106 {fill:#00E38B}
    .fil105 {fill:#00E38C}
    .fil104 {fill:#00E38D}
    .fil103 {fill:#00E38E}
    .fil112 {fill:#00E485}
    .fil111 {fill:#00E486}
    .fil110 {fill:#00E487}
    .fil109 {fill:#00E488}
    .fil108 {fill:#00E489}
    .fil117 {fill:#00E580}
    .fil116 {fill:#00E581}
    .fil115 {fill:#00E582}
    .fil114 {fill:#00E583}
    .fil113 {fill:#00E584}
    .fil122 {fill:#00E67B}
    .fil121 {fill:#00E67C}
    .fil120 {fill:#00E67D}
    .fil119 {fill:#00E67E}
    .fil118 {fill:#00E67F}
    .fil127 {fill:#00E776}
    .fil126 {fill:#00E777}
    .fil125 {fill:#00E778}
    .fil124 {fill:#00E779}
    .fil123 {fill:#00E77A}
    .fil132 {fill:#00E871}
    .fil131 {fill:#00E872}
    .fil130 {fill:#00E873}
    .fil129 {fill:#00E874}
    .fil128 {fill:#00E875}
    .fil137 {fill:#00E96C}
    .fil136 {fill:#00E96D}
    .fil135 {fill:#00E96E}
    .fil134 {fill:#00E96F}
    .fil133 {fill:#00E970}
    .fil142 {fill:#00EA67}
    .fil141 {fill:#00EA68}
    .fil140 {fill:#00EA69}
    .fil139 {fill:#00EA6A}
    .fil138 {fill:#00EA6B}
    .fil147 {fill:#00EB62}
    .fil146 {fill:#00EB63}
    .fil145 {fill:#00EB64}
    .fil144 {fill:#00EB65}
    .fil143 {fill:#00EB66}
    .fil152 {fill:#00EC5D}
    .fil151 {fill:#00EC5E}
    .fil150 {fill:#00EC5F}
    .fil149 {fill:#00EC60}
    .fil148 {fill:#00EC61}
    .fil157 {fill:#00ED58}
    .fil156 {fill:#00ED59}
    .fil155 {fill:#00ED5A}
    .fil154 {fill:#00ED5B}
    .fil153 {fill:#00ED5C}
    .fil162 {fill:#00EE53}
    .fil161 {fill:#00EE54}
    .fil160 {fill:#00EE55}
    .fil159 {fill:#00EE56}
    .fil158 {fill:#00EE57}
    .fil167 {fill:#00EF4E}
    .fil166 {fill:#00EF4F}
    .fil165 {fill:#00EF50}
    .fil164 {fill:#00EF51}
    .fil163 {fill:#00EF52}
    .fil172 {fill:#00F049}
    .fil171 {fill:#00F04A}
    .fil170 {fill:#00F04B}
    .fil169 {fill:#00F04C}
    .fil168 {fill:#00F04D}
    .fil177 {fill:#00F144}
    .fil176 {fill:#00F145}
    .fil175 {fill:#00F146}
    .fil174 {fill:#00F147}
    .fil173 {fill:#00F148}
    .fil182 {fill:#00F23F}
    .fil181 {fill:#00F240}
    .fil180 {fill:#00F241}
    .fil179 {fill:#00F242}
    .fil178 {fill:#00F243}
    .fil186 {fill:#00F33B}
    .fil185 {fill:#00F33C}
    .fil184 {fill:#00F33D}
    .fil183 {fill:#00F33E}
    .fil191 {fill:#00F435}
    .fil190 {fill:#00F436}
    .fil189 {fill:#00F437}
    .fil188 {fill:#00F438}
    .fil187 {fill:#00F439}
    .fil196 {fill:#00F530}
    .fil195 {fill:#00F531}
    .fil194 {fill:#00F532}
    .fil193 {fill:#00F533}
    .fil192 {fill:#00F534}
    .fil201 {fill:#00F62B}
    .fil200 {fill:#00F62C}
    .fil199 {fill:#00F62D}
    .fil198 {fill:#00F62E}
    .fil197 {fill:#00F62F}
    .fil205 {fill:#00F727}
    .fil204 {fill:#00F728}
    .fil203 {fill:#00F729}
    .fil202 {fill:#00F72A}
    .fil210 {fill:#00F821}
    .fil209 {fill:#00F822}
    .fil208 {fill:#00F823}
    .fil207 {fill:#00F824}
    .fil206 {fill:#00F825}
    .fil214 {fill:#00F91D}
    .fil213 {fill:#00F91E}
    .fil212 {fill:#00F91F}
    .fil211 {fill:#00F920}
    .fil219 {fill:#00FA17}
    .fil218 {fill:#00FA18}
    .fil217 {fill:#00FA19}
    .fil216 {fill:#00FA1A}
    .fil215 {fill:#00FA1B}
    .fil223 {fill:#00FB12}
    .fil222 {fill:#00FB13}
    .fil221 {fill:#00FB14}
    .fil220 {fill:#00FB16}
    .fil227 {fill:#00FC0D}
    .fil226 {fill:#00FC0F}
    .fil225 {fill:#00FC10}
    .fil224 {fill:#00FC11}
    .fil231 {fill:#00FD09}
    .fil230 {fill:#00FD0A}
    .fil229 {fill:#00FD0B}
    .fil228 {fill:#00FD0C}
    .fil235 {fill:#00FE04}
    .fil234 {fill:#00FE05}
    .fil233 {fill:#00FE06}
    .fil232 {fill:#00FE07}
    .fil238 {fill:lime}
    .fil237 {fill:#00FF01}
    .fil236 {fill:#00FF02}
    .fil239 {fill:white}
    .fil241 {fill:url(#id1);fill-rule:nonzero}
   ]]>
  </style>
    <clipPath id="id0">
     <path d="M9925 3314c-3521,0 -6375,2854 -6375,6375 0,3521 2854,6375 6375,6375l0 -1c2333,-37 4282,-1888 4813,-4373 -43,164 -111,317 -198,453 -426,825 -1227,1382 -2145,1382 -1364,0 -2470,-1229 -2470,-2745l0 -1091 6376 0 1912 0c0,-4573 -3704,-8281 -8275,-8288 -4,0 -8,0 -13,0l0 1913z"/>
    </clipPath>
  <linearGradient id="id1" gradientUnits="userSpaceOnUse" x1="37168.3" y1="21468.4" x2="45023.8" y2="4415.53">
   <stop offset="0" style="stop-opacity:1; stop-color:#00CCFF"/>
   <stop offset="0.541176" style="stop-opacity:1; stop-color:#00E580"/>
   <stop offset="1" style="stop-opacity:1; stop-color:lime"/>
  </linearGradient>
 </defs>
 <g id="Camada_x0020_1">
  <metadata id="CorelCorpID_0Corel-Layer"/>
  <g>
   <g style="clip-path:url(#id0)">
    <polygon class="fil0" points="-116,9019 759,8253 9597,18354 8722,19120 "/>
    <polygon id="1" class="fil1" points="737,8272 802,8216 9640,18317 9575,18373 "/>
    <polygon id="2" class="fil2" points="780,8235 845,8178 9683,18279 9619,18336 "/>
    <polygon id="3" class="fil3" points="823,8197 888,8140 9726,18241 9662,18298 "/>
    <polygon id="4" class="fil4" points="867,8159 931,8103 9769,18204 9705,18260 "/>
    <polygon id="5" class="fil5" points="910,8121 974,8065 9813,18166 9748,18222 "/>
    <polygon id="6" class="fil6" points="953,8084 1017,8027 9856,18128 9791,18185 "/>
    <polygon id="7" class="fil7" points="996,8046 1060,7989 9899,18090 9834,18147 "/>
    <polygon id="8" class="fil8" points="1039,8008 1104,7952 9942,18053 9877,18109 "/>
    <polygon id="9" class="fil9" points="1082,7971 1147,7914 9985,18015 9920,18072 "/>
    <polygon id="10" class="fil10" points="1125,7933 1190,7876 10028,17977 9963,18034 "/>
    <polygon id="11" class="fil11" points="1168,7895 1233,7839 10071,17939 10007,17996 "/>
    <polygon id="12" class="fil12" points="1211,7857 1276,7801 10114,17902 10050,17958 "/>
    <polygon id="13" class="fil13" points="1254,7820 1319,7763 10157,17864 10093,17921 "/>
    <polygon id="14" class="fil14" points="1298,7782 1362,7725 10201,17826 10136,17883 "/>
    <polygon id="15" class="fil15" points="1341,7744 1405,7688 10244,17789 10179,17845 "/>
    <polygon id="16" class="fil16" points="1384,7707 1448,7650 10287,17751 10222,17807 "/>
    <polygon id="17" class="fil17" points="1427,7669 1492,7612 10330,17713 10265,17770 "/>
    <polygon id="18" class="fil18" points="1470,7631 1535,7575 10373,17675 10308,17732 "/>
    <polygon id="19" class="fil19" points="1513,7593 1578,7537 10416,17638 10351,17694 "/>
    <polygon id="20" class="fil20" points="1556,7556 1621,7499 10459,17600 10395,17657 "/>
    <polygon id="21" class="fil21" points="1599,7518 1664,7461 10502,17562 10438,17619 "/>
    <polygon id="22" class="fil22" points="1642,7480 1707,7424 10545,17525 10481,17581 "/>
    <polygon id="23" class="fil23" points="1686,7443 1750,7386 10588,17487 10524,17543 "/>
    <polygon id="24" class="fil24" points="1729,7405 1793,7348 10632,17449 10567,17506 "/>
    <polygon id="25" class="fil25" points="1772,7367 1836,7311 10675,17411 10610,17468 "/>
    <polygon id="26" class="fil26" points="1815,7329 1879,7273 10718,17374 10653,17430 "/>
    <polygon id="27" class="fil27" points="1858,7292 1923,7235 10761,17336 10696,17393 "/>
    <polygon id="28" class="fil28" points="1901,7254 1966,7197 10804,17298 10739,17355 "/>
    <polygon id="29" class="fil29" points="1944,7216 2009,7160 10847,17261 10782,17317 "/>
    <polygon id="30" class="fil30" points="1987,7179 2052,7122 10890,17223 10826,17279 "/>
    <polygon id="31" class="fil31" points="2030,7141 2095,7084 10933,17185 10869,17242 "/>
    <polygon id="32" class="fil32" points="2073,7103 2138,7047 10976,17147 10912,17204 "/>
    <polygon id="33" class="fil33" points="2117,7065 2181,7009 11020,17110 10955,17166 "/>
    <polygon id="34" class="fil34" points="2160,7028 2224,6971 11063,17072 10998,17129 "/>
    <polygon id="35" class="fil35" points="2203,6990 2267,6933 11106,17034 11041,17091 "/>
    <polygon id="36" class="fil36" points="2246,6952 2311,6896 11149,16997 11084,17053 "/>
    <polygon id="37" class="fil37" points="2289,6915 2354,6858 11192,16959 11127,17015 "/>
    <polygon id="38" class="fil38" points="2332,6877 2397,6820 11235,16921 11170,16978 "/>
    <polygon id="39" class="fil39" points="2375,6839 2440,6782 11278,16883 11214,16940 "/>
    <polygon id="40" class="fil40" points="2418,6801 2483,6745 11321,16846 11257,16902 "/>
    <polygon id="41" class="fil41" points="2461,6764 2526,6707 11364,16808 11300,16865 "/>
    <polygon id="42" class="fil42" points="2505,6726 2569,6669 11407,16770 11343,16827 "/>
    <polygon id="43" class="fil43" points="2548,6688 2612,6632 11451,16733 11386,16789 "/>
    <polygon id="44" class="fil44" points="2591,6650 2655,6594 11494,16695 11429,16751 "/>
    <polygon id="45" class="fil45" points="2634,6613 2699,6556 11537,16657 11472,16714 "/>
    <polygon id="46" class="fil46" points="2677,6575 2742,6518 11580,16619 11515,16676 "/>
    <polygon id="47" class="fil47" points="2720,6537 2785,6481 11623,16582 11558,16638 "/>
    <polygon id="48" class="fil48" points="2763,6500 2828,6443 11666,16544 11601,16601 "/>
    <polygon id="49" class="fil49" points="2806,6462 2871,6405 11709,16506 11645,16563 "/>
    <polygon id="50" class="fil50" points="2849,6424 2914,6368 11752,16469 11688,16525 "/>
    <polygon id="51" class="fil51" points="2892,6386 2957,6330 11795,16431 11731,16487 "/>
    <polygon id="52" class="fil52" points="2936,6349 3000,6292 11839,16393 11774,16450 "/>
    <polygon id="53" class="fil53" points="2979,6311 3043,6254 11882,16355 11817,16412 "/>
    <polygon id="54" class="fil54" points="3022,6273 3086,6217 11925,16318 11860,16374 "/>
    <polygon id="55" class="fil55" points="3065,6236 3130,6179 11968,16280 11903,16337 "/>
    <polygon id="56" class="fil56" points="3108,6198 3173,6141 12011,16242 11946,16299 "/>
    <polygon id="57" class="fil57" points="3151,6160 3216,6104 12054,16204 11989,16261 "/>
    <polygon id="58" class="fil58" points="3194,6122 3259,6066 12097,16167 12033,16223 "/>
    <polygon id="59" class="fil59" points="3237,6085 3302,6028 12140,16129 12076,16186 "/>
    <polygon id="60" class="fil60" points="3280,6047 3345,5990 12183,16091 12119,16148 "/>
    <polygon id="61" class="fil61" points="3324,6009 3388,5953 12226,16054 12162,16110 "/>
    <polygon id="62" class="fil62" points="3367,5972 3431,5915 12270,16016 12205,16072 "/>
    <polygon id="63" class="fil63" points="3410,5934 3474,5877 12313,15978 12248,16035 "/>
    <polygon id="64" class="fil64" points="3453,5896 3518,5840 12356,15940 12291,15997 "/>
    <polygon id="65" class="fil65" points="3496,5858 3561,5802 12399,15903 12334,15959 "/>
    <polygon id="66" class="fil66" points="3539,5821 3604,5764 12442,15865 12377,15922 "/>
    <polygon id="67" class="fil67" points="3582,5783 3647,5726 12485,15827 12420,15884 "/>
    <polygon id="68" class="fil68" points="3625,5745 3690,5689 12528,15790 12464,15846 "/>
    <polygon id="69" class="fil69" points="3668,5708 3733,5651 12571,15752 12507,15808 "/>
    <polygon id="70" class="fil70" points="3711,5670 3776,5613 12614,15714 12550,15771 "/>
    <polygon id="71" class="fil71" points="3755,5632 3819,5576 12658,15676 12593,15733 "/>
    <polygon id="72" class="fil72" points="3798,5594 3862,5538 12701,15639 12636,15695 "/>
    <polygon id="73" class="fil73" points="3841,5557 3905,5500 12744,15601 12679,15658 "/>
    <polygon id="74" class="fil74" points="3884,5519 3949,5462 12787,15563 12722,15620 "/>
    <polygon id="75" class="fil75" points="3927,5481 3992,5425 12830,15526 12765,15582 "/>
    <polygon id="76" class="fil76" points="3970,5444 4035,5387 12873,15488 12808,15544 "/>
    <polygon id="77" class="fil77" points="4013,5406 4078,5349 12916,15450 12852,15507 "/>
    <polygon id="78" class="fil78" points="4056,5368 4121,5312 12959,15412 12895,15469 "/>
    <polygon id="79" class="fil79" points="4099,5330 4164,5274 13002,15375 12938,15431 "/>
    <polygon id="80" class="fil80" points="4143,5293 4207,5236 13045,15337 12981,15394 "/>
    <polygon id="81" class="fil80" points="4186,5255 4250,5198 13089,15299 13024,15356 "/>
    <polygon id="82" class="fil81" points="4229,5217 4293,5161 13132,15262 13067,15318 "/>
    <polygon id="83" class="fil82" points="4272,5180 4337,5123 13175,15224 13110,15280 "/>
    <polygon id="84" class="fil83" points="4315,5142 4380,5085 13218,15186 13153,15243 "/>
    <polygon id="85" class="fil84" points="4358,5104 4423,5047 13261,15148 13196,15205 "/>
    <polygon id="86" class="fil85" points="4401,5066 4466,5010 13304,15111 13239,15167 "/>
    <polygon id="87" class="fil86" points="4444,5029 4509,4972 13347,15073 13283,15130 "/>
    <polygon id="88" class="fil87" points="4487,4991 4552,4934 13390,15035 13326,15092 "/>
    <polygon id="89" class="fil88" points="4530,4953 4595,4897 13433,14998 13369,15054 "/>
    <polygon id="90" class="fil89" points="4574,4915 4638,4859 13477,14960 13412,15016 "/>
    <polygon id="91" class="fil89" points="4617,4878 4681,4821 13520,14922 13455,14979 "/>
    <polygon id="92" class="fil90" points="4660,4840 4724,4783 13563,14884 13498,14941 "/>
    <polygon id="93" class="fil91" points="4703,4802 4768,4746 13606,14847 13541,14903 "/>
    <polygon id="94" class="fil92" points="4746,4765 4811,4708 13649,14809 13584,14866 "/>
    <polygon id="95" class="fil93" points="4789,4727 4854,4670 13692,14771 13627,14828 "/>
    <polygon id="96" class="fil94" points="4832,4689 4897,4633 13735,14734 13671,14790 "/>
    <polygon id="97" class="fil95" points="4875,4651 4940,4595 13778,14696 13714,14752 "/>
    <polygon id="98" class="fil96" points="4918,4614 4983,4557 13821,14658 13757,14715 "/>
    <polygon id="99" class="fil96" points="4962,4576 5026,4519 13865,14620 13800,14677 "/>
    <polygon id="100" class="fil97" points="5005,4538 5069,4482 13908,14583 13843,14639 "/>
    <polygon id="101" class="fil98" points="5048,4501 5112,4444 13951,14545 13886,14602 "/>
    <polygon id="102" class="fil99" points="5091,4463 5156,4406 13994,14507 13929,14564 "/>
    <polygon id="103" class="fil100" points="5134,4425 5199,4369 14037,14469 13972,14526 "/>
    <polygon id="104" class="fil101" points="5177,4387 5242,4331 14080,14432 14015,14488 "/>
    <polygon id="105" class="fil102" points="5220,4350 5285,4293 14123,14394 14058,14451 "/>
    <polygon id="106" class="fil102" points="5263,4312 5328,4255 14166,14356 14102,14413 "/>
    <polygon id="107" class="fil103" points="5306,4274 5371,4218 14209,14319 14145,14375 "/>
    <polygon id="108" class="fil104" points="5350,4237 5414,4180 14252,14281 14188,14337 "/>
    <polygon id="109" class="fil105" points="5393,4199 5457,4142 14296,14243 14231,14300 "/>
    <polygon id="110" class="fil106" points="5436,4161 5500,4105 14339,14205 14274,14262 "/>
    <polygon id="111" class="fil106" points="5479,4123 5543,4067 14382,14168 14317,14224 "/>
    <polygon id="112" class="fil107" points="5522,4086 5587,4029 14425,14130 14360,14187 "/>
    <polygon id="113" class="fil108" points="5565,4048 5630,3991 14468,14092 14403,14149 "/>
    <polygon id="114" class="fil109" points="5608,4010 5673,3954 14511,14055 14446,14111 "/>
    <polygon id="115" class="fil110" points="5651,3973 5716,3916 14554,14017 14490,14073 "/>
    <polygon id="116" class="fil110" points="5694,3935 5759,3878 14597,13979 14533,14036 "/>
    <polygon id="117" class="fil111" points="5737,3897 5802,3841 14640,13941 14576,13998 "/>
    <polygon id="118" class="fil112" points="5781,3859 5845,3803 14684,13904 14619,13960 "/>
    <polygon id="119" class="fil113" points="5824,3822 5888,3765 14727,13866 14662,13923 "/>
    <polygon id="120" class="fil114" points="5867,3784 5931,3727 14770,13828 14705,13885 "/>
    <polygon id="121" class="fil114" points="5910,3746 5975,3690 14813,13791 14748,13847 "/>
    <polygon id="122" class="fil115" points="5953,3709 6018,3652 14856,13753 14791,13809 "/>
    <polygon id="123" class="fil116" points="5996,3671 6061,3614 14899,13715 14834,13772 "/>
    <polygon id="124" class="fil117" points="6039,3633 6104,3577 14942,13677 14877,13734 "/>
    <polygon id="125" class="fil118" points="6082,3595 6147,3539 14985,13640 14921,13696 "/>
    <polygon id="126" class="fil118" points="6125,3558 6190,3501 15028,13602 14964,13659 "/>
    <polygon id="127" class="fil119" points="6169,3520 6233,3463 15071,13564 15007,13621 "/>
    <polygon id="128" class="fil120" points="6212,3482 6276,3426 15115,13527 15050,13583 "/>
    <polygon id="129" class="fil121" points="6255,3445 6319,3388 15158,13489 15093,13545 "/>
    <polygon id="130" class="fil121" points="6298,3407 6362,3350 15201,13451 15136,13508 "/>
    <polygon id="131" class="fil122" points="6341,3369 6406,3312 15244,13413 15179,13470 "/>
    <polygon id="132" class="fil123" points="6384,3331 6449,3275 15287,13376 15222,13432 "/>
    <polygon id="133" class="fil124" points="6427,3294 6492,3237 15330,13338 15265,13395 "/>
    <polygon id="134" class="fil125" points="6470,3256 6535,3199 15373,13300 15309,13357 "/>
    <polygon id="135" class="fil125" points="6513,3218 6578,3162 15416,13263 15352,13319 "/>
    <polygon id="136" class="fil126" points="6556,3180 6621,3124 15459,13225 15395,13281 "/>
    <polygon id="137" class="fil127" points="6600,3143 6664,3086 15503,13187 15438,13244 "/>
    <polygon id="138" class="fil128" points="6643,3105 6707,3048 15546,13149 15481,13206 "/>
    <polygon id="139" class="fil129" points="6686,3067 6750,3011 15589,13112 15524,13168 "/>
    <polygon id="140" class="fil129" points="6729,3030 6794,2973 15632,13074 15567,13131 "/>
    <polygon id="141" class="fil130" points="6772,2992 6837,2935 15675,13036 15610,13093 "/>
    <polygon id="142" class="fil131" points="6815,2954 6880,2898 15718,12999 15653,13055 "/>
    <polygon id="143" class="fil132" points="6858,2916 6923,2860 15761,12961 15696,13017 "/>
    <polygon id="144" class="fil133" points="6901,2879 6966,2822 15804,12923 15740,12980 "/>
    <polygon id="145" class="fil133" points="6944,2841 7009,2784 15847,12885 15783,12942 "/>
    <polygon id="146" class="fil134" points="6988,2803 7052,2747 15890,12848 15826,12904 "/>
    <polygon id="147" class="fil135" points="7031,2766 7095,2709 15934,12810 15869,12867 "/>
    <polygon id="148" class="fil136" points="7074,2728 7138,2671 15977,12772 15912,12829 "/>
    <polygon id="149" class="fil137" points="7117,2690 7181,2634 16020,12734 15955,12791 "/>
    <polygon id="150" class="fil138" points="7160,2652 7225,2596 16063,12697 15998,12753 "/>
    <polygon id="151" class="fil138" points="7203,2615 7268,2558 16106,12659 16041,12716 "/>
    <polygon id="152" class="fil139" points="7246,2577 7311,2520 16149,12621 16084,12678 "/>
    <polygon id="153" class="fil140" points="7289,2539 7354,2483 16192,12584 16128,12640 "/>
    <polygon id="154" class="fil141" points="7332,2502 7397,2445 16235,12546 16171,12602 "/>
    <polygon id="155" class="fil142" points="7375,2464 7440,2407 16278,12508 16214,12565 "/>
    <polygon id="156" class="fil143" points="7419,2426 7483,2370 16322,12470 16257,12527 "/>
    <polygon id="157" class="fil144" points="7462,2388 7526,2332 16365,12433 16300,12489 "/>
    <polygon id="158" class="fil144" points="7505,2351 7569,2294 16408,12395 16343,12452 "/>
    <polygon id="159" class="fil145" points="7548,2313 7613,2256 16451,12357 16386,12414 "/>
    <polygon id="160" class="fil146" points="7591,2275 7656,2219 16494,12320 16429,12376 "/>
    <polygon id="161" class="fil147" points="7634,2238 7699,2181 16537,12282 16472,12338 "/>
    <polygon id="162" class="fil148" points="7677,2200 7742,2143 16580,12244 16515,12301 "/>
    <polygon id="163" class="fil149" points="7720,2162 7785,2106 16623,12206 16559,12263 "/>
    <polygon id="164" class="fil150" points="7763,2124 7828,2068 16666,12169 16602,12225 "/>
    <polygon id="165" class="fil151" points="7807,2087 7871,2030 16709,12131 16645,12188 "/>
    <polygon id="166" class="fil151" points="7850,2049 7914,1992 16753,12093 16688,12150 "/>
    <polygon id="167" class="fil152" points="7893,2011 7957,1955 16796,12056 16731,12112 "/>
    <polygon id="168" class="fil153" points="7936,1974 8000,1917 16839,12018 16774,12074 "/>
    <polygon id="169" class="fil154" points="7979,1936 8044,1879 16882,11980 16817,12037 "/>
    <polygon id="170" class="fil155" points="8022,1898 8087,1842 16925,11942 16860,11999 "/>
    <polygon id="171" class="fil156" points="8065,1860 8130,1804 16968,11905 16903,11961 "/>
    <polygon id="172" class="fil157" points="8108,1823 8173,1766 17011,11867 16947,11924 "/>
    <polygon id="173" class="fil158" points="8151,1785 8216,1728 17054,11829 16990,11886 "/>
    <polygon id="174" class="fil159" points="8194,1747 8259,1691 17097,11792 17033,11848 "/>
    <polygon id="175" class="fil160" points="8238,1710 8302,1653 17141,11754 17076,11810 "/>
    <polygon id="176" class="fil160" points="8281,1672 8345,1615 17184,11716 17119,11773 "/>
    <polygon id="177" class="fil161" points="8324,1634 8388,1577 17227,11678 17162,11735 "/>
    <polygon id="178" class="fil162" points="8367,1596 8432,1540 17270,11641 17205,11697 "/>
    <polygon id="179" class="fil163" points="8410,1559 8475,1502 17313,11603 17248,11660 "/>
    <polygon id="180" class="fil164" points="8453,1521 8518,1464 17356,11565 17291,11622 "/>
    <polygon id="181" class="fil165" points="8496,1483 8561,1427 17399,11528 17335,11584 "/>
    <polygon id="182" class="fil166" points="8539,1445 8604,1389 17442,11490 17378,11546 "/>
    <polygon id="183" class="fil167" points="8582,1408 8647,1351 17485,11452 17421,11509 "/>
    <polygon id="184" class="fil168" points="8626,1370 8690,1313 17528,11414 17464,11471 "/>
    <polygon id="185" class="fil169" points="8669,1332 8733,1276 17572,11377 17507,11433 "/>
    <polygon id="186" class="fil170" points="8712,1295 8776,1238 17615,11339 17550,11396 "/>
    <polygon id="187" class="fil171" points="8755,1257 8820,1200 17658,11301 17593,11358 "/>
    <polygon id="188" class="fil172" points="8798,1219 8863,1163 17701,11264 17636,11320 "/>
    <polygon id="189" class="fil173" points="8841,1181 8906,1125 17744,11226 17679,11282 "/>
    <polygon id="190" class="fil174" points="8884,1144 8949,1087 17787,11188 17722,11245 "/>
    <polygon id="191" class="fil175" points="8927,1106 8992,1049 17830,11150 17766,11207 "/>
    <polygon id="192" class="fil176" points="8970,1068 9035,1012 17873,11113 17809,11169 "/>
    <polygon id="193" class="fil177" points="9013,1031 9078,974 17916,11075 17852,11132 "/>
    <polygon id="194" class="fil178" points="9057,993 9121,936 17960,11037 17895,11094 "/>
    <polygon id="195" class="fil178" points="9100,955 9164,899 18003,10999 17938,11056 "/>
    <polygon id="196" class="fil179" points="9143,917 9207,861 18046,10962 17981,11018 "/>
    <polygon id="197" class="fil180" points="9186,880 9251,823 18089,10924 18024,10981 "/>
    <polygon id="198" class="fil181" points="9229,842 9294,785 18132,10886 18067,10943 "/>
    <polygon id="199" class="fil182" points="9272,804 9337,748 18175,10849 18110,10905 "/>
    <polygon id="200" class="fil183" points="9315,767 9380,710 18218,10811 18154,10867 "/>
    <polygon id="201" class="fil184" points="9358,729 9423,672 18261,10773 18197,10830 "/>
    <polygon id="202" class="fil185" points="9401,691 9466,635 18304,10735 18240,10792 "/>
    <polygon id="203" class="fil186" points="9445,653 9509,597 18347,10698 18283,10754 "/>
    <polygon id="204" class="fil187" points="9488,616 9552,559 18391,10660 18326,10717 "/>
    <polygon id="205" class="fil188" points="9531,578 9595,521 18434,10622 18369,10679 "/>
    <polygon id="206" class="fil189" points="9574,540 9639,484 18477,10585 18412,10641 "/>
    <polygon id="207" class="fil190" points="9617,503 9682,446 18520,10547 18455,10603 "/>
    <polygon id="208" class="fil191" points="9660,465 9725,408 18563,10509 18498,10566 "/>
    <polygon id="209" class="fil192" points="9703,427 9768,371 18606,10471 18541,10528 "/>
    <polygon id="210" class="fil193" points="9746,389 9811,333 18649,10434 18585,10490 "/>
    <polygon id="211" class="fil194" points="9789,352 9854,295 18692,10396 18628,10453 "/>
    <polygon id="212" class="fil195" points="9832,314 9897,257 18735,10358 18671,10415 "/>
    <polygon id="213" class="fil196" points="9876,276 9940,220 18779,10321 18714,10377 "/>
    <polygon id="214" class="fil197" points="9919,239 9983,182 18822,10283 18757,10339 "/>
    <polygon id="215" class="fil198" points="9962,201 10026,144 18865,10245 18800,10302 "/>
    <polygon id="216" class="fil199" points="10005,163 10070,107 18908,10207 18843,10264 "/>
    <polygon id="217" class="fil200" points="10048,125 10113,69 18951,10170 18886,10226 "/>
    <polygon id="218" class="fil201" points="10091,88 10156,31 18994,10132 18929,10189 "/>
    <polygon id="219" class="fil202" points="10134,50 10199,-7 19037,10094 18973,10151 "/>
    <polygon id="220" class="fil203" points="10177,12 10242,-44 19080,10057 19016,10113 "/>
    <polygon id="221" class="fil204" points="10220,-26 10285,-82 19123,10019 19059,10075 "/>
    <polygon id="222" class="fil205" points="10264,-63 10328,-120 19166,9981 19102,10038 "/>
    <polygon id="223" class="fil206" points="10307,-101 10371,-158 19210,9943 19145,10000 "/>
    <polygon id="224" class="fil207" points="10350,-139 10414,-195 19253,9906 19188,9962 "/>
    <polygon id="225" class="fil208" points="10393,-176 10458,-233 19296,9868 19231,9925 "/>
    <polygon id="226" class="fil209" points="10436,-214 10501,-271 19339,9830 19274,9887 "/>
    <polygon id="227" class="fil210" points="10479,-252 10544,-308 19382,9793 19317,9849 "/>
    <polygon id="228" class="fil211" points="10522,-290 10587,-346 19425,9755 19360,9811 "/>
    <polygon id="229" class="fil212" points="10565,-327 10630,-384 19468,9717 19404,9774 "/>
    <polygon id="230" class="fil213" points="10608,-365 10673,-422 19511,9679 19447,9736 "/>
    <polygon id="231" class="fil214" points="10651,-403 10716,-459 19554,9642 19490,9698 "/>
    <polygon id="232" class="fil215" points="10695,-440 10759,-497 19598,9604 19533,9661 "/>
    <polygon id="233" class="fil216" points="10738,-478 10802,-535 19641,9566 19576,9623 "/>
    <polygon id="234" class="fil217" points="10781,-516 10845,-572 19684,9529 19619,9585 "/>
    <polygon id="235" class="fil218" points="10824,-554 10889,-610 19727,9491 19662,9547 "/>
    <polygon id="236" class="fil219" points="10867,-591 10932,-648 19770,9453 19705,9510 "/>
    <polygon id="237" class="fil220" points="10910,-629 10975,-686 19813,9415 19748,9472 "/>
    <polygon id="238" class="fil221" points="10953,-667 11018,-723 19856,9378 19792,9434 "/>
    <polygon id="239" class="fil222" points="10996,-704 11061,-761 19899,9340 19835,9397 "/>
    <polygon id="240" class="fil223" points="11039,-742 11104,-799 19942,9302 19878,9359 "/>
    <polygon id="241" class="fil224" points="11083,-780 11147,-836 19985,9264 19921,9321 "/>
    <polygon id="242" class="fil225" points="11126,-818 11190,-874 20029,9227 19964,9283 "/>
    <polygon id="243" class="fil226" points="11169,-855 11233,-912 20072,9189 20007,9246 "/>
    <polygon id="244" class="fil227" points="11212,-893 11277,-950 20115,9151 20050,9208 "/>
    <polygon id="245" class="fil228" points="11255,-931 11320,-987 20158,9114 20093,9170 "/>
    <polygon id="246" class="fil229" points="11298,-968 11363,-1025 20201,9076 20136,9132 "/>
    <polygon id="247" class="fil230" points="11341,-1006 11406,-1063 20244,9038 20179,9095 "/>
    <polygon id="248" class="fil231" points="11384,-1044 11449,-1100 20287,9000 20223,9057 "/>
    <polygon id="249" class="fil232" points="11427,-1082 11492,-1138 20330,8963 20266,9019 "/>
    <polygon id="250" class="fil233" points="11470,-1119 11535,-1176 20373,8925 20309,8982 "/>
    <polygon id="251" class="fil234" points="11514,-1157 11578,-1214 20417,8887 20352,8944 "/>
    <polygon id="252" class="fil235" points="11557,-1195 11621,-1251 20460,8850 20395,8906 "/>
    <polygon id="253" class="fil236" points="11600,-1232 11664,-1289 20503,8812 20438,8868 "/>
    <polygon id="254" class="fil237" points="11643,-1270 11708,-1327 20546,8774 20481,8831 "/>
    <polygon id="255" class="fil238" points="11686,-1308 12199,-1757 21038,8344 20524,8793 "/>
   </g>
  </g>
  <circle class="fil239 str0" cx="14837" cy="6807" r="1275"/>
  <circle class="fil240 str0" cx="14837" cy="6807" r="638"/>
  <path class="fil241" d="M24952 15419c-281,242 -597,428 -946,558 -350,130 -712,195 -1087,195 -287,0 -564,-38 -831,-113 -265,-75 -515,-180 -747,-317 -233,-136 -445,-300 -637,-492 -191,-192 -356,-404 -493,-637 -136,-232 -241,-481 -316,-747 -75,-267 -113,-544 -113,-831 0,-287 38,-566 113,-832 75,-269 180,-518 316,-751 137,-232 302,-444 493,-636 192,-192 404,-356 637,-492 232,-137 482,-242 747,-317 267,-75 544,-113 831,-113 375,0 737,65 1087,192 349,128 665,316 946,561l-642 1056c-178,-192 -388,-339 -631,-441 -242,-103 -494,-155 -760,-155 -268,0 -518,51 -752,152 -235,102 -438,239 -613,413 -174,173 -313,378 -414,613 -102,235 -153,485 -153,750 0,266 51,514 153,746 101,232 240,436 414,610 175,176 378,313 613,416 234,101 484,151 752,151 266,0 518,-52 760,-154 243,-103 453,-250 631,-442l642 1057zm1733 621l-1153 0 0 -6328 1153 0 0 2000c138,-104 281,-179 427,-222 147,-43 297,-65 449,-65 278,0 541,52 786,159 245,105 459,249 640,434 182,185 325,401 432,648 105,246 157,509 157,787l0 2587 -1161 0 0 -2587 8 0c0,-118 -23,-230 -67,-336 -47,-105 -107,-197 -187,-277 -79,-78 -170,-140 -275,-186 -104,-45 -215,-68 -333,-68 -122,0 -236,23 -342,68 -109,46 -201,108 -280,186 -78,80 -140,172 -186,277 -45,106 -68,218 -68,336l0 2587zm8095 0l-280 0 -447 -621c-110,99 -226,191 -349,277 -123,86 -251,161 -387,223 -135,64 -274,114 -415,150 -143,38 -287,56 -435,56 -317,0 -617,-54 -897,-161 -281,-107 -527,-263 -736,-466 -210,-205 -375,-455 -496,-750 -121,-298 -182,-634 -182,-1012 0,-352 61,-675 182,-969 121,-295 286,-547 496,-759 209,-211 455,-375 736,-492 280,-117 580,-176 897,-176 148,0 292,19 436,55 144,37 283,88 419,153 135,64 264,139 386,227 123,87 238,182 345,283l447 -536 280 0 0 4518zm-1163 -2304c0,-157 -30,-310 -91,-459 -60,-147 -142,-278 -246,-392 -106,-114 -227,-206 -367,-274 -138,-69 -287,-104 -446,-104 -157,0 -305,26 -445,79 -139,55 -260,133 -364,237 -102,105 -183,234 -242,388 -60,153 -90,329 -90,525 0,198 30,374 90,527 59,153 140,283 242,387 104,103 225,183 364,236 140,54 288,81 445,81 159,0 308,-35 446,-104 140,-69 261,-160 367,-274 104,-114 186,-245 246,-394 61,-147 91,-300 91,-459zm7799 2304l-1150 0 0 -2874c0,-79 -15,-154 -45,-223 -29,-71 -71,-133 -124,-186 -53,-54 -116,-96 -186,-126 -71,-29 -146,-45 -224,-45 -79,0 -153,16 -222,45 -69,30 -130,72 -182,126 -52,53 -94,115 -122,186 -31,69 -45,144 -45,223l0 2874 -1154 0 0 -2874c0,-79 -15,-154 -44,-223 -30,-71 -72,-133 -125,-186 -54,-54 -116,-96 -186,-126 -71,-29 -145,-45 -224,-45 -79,0 -153,16 -222,45 -69,30 -130,72 -182,126 -52,53 -92,115 -123,186 -28,69 -44,144 -44,223l0 2874 -1153 0 0 -4527 278 0 313 348c161,-136 338,-241 531,-316 192,-75 394,-111 602,-111 212,0 418,39 619,118 202,78 378,215 531,410 71,-97 150,-178 241,-246 89,-67 185,-122 286,-164 99,-43 203,-74 310,-91 107,-19 212,-27 317,-27 240,0 465,44 674,134 211,91 392,213 550,371 155,155 280,340 369,551 91,212 136,437 136,676l0 2874zm2641 -1108c45,15 90,25 136,28 45,4 89,7 134,7 113,0 222,-16 326,-46 104,-32 202,-77 293,-134 92,-58 175,-129 245,-211 73,-84 132,-176 176,-277l846 850c-107,151 -231,288 -369,409 -140,122 -292,224 -453,309 -162,84 -332,149 -511,192 -179,43 -364,66 -553,66 -317,0 -617,-59 -897,-177 -282,-118 -527,-284 -736,-495 -211,-212 -375,-463 -496,-754 -122,-292 -182,-612 -182,-963 0,-358 60,-684 182,-979 121,-296 285,-549 496,-758 209,-208 454,-371 736,-486 280,-116 580,-173 897,-173 189,0 374,23 554,68 181,44 352,109 514,194 161,84 313,188 454,311 142,122 266,259 373,412l-2165 2607zm592 -2379c-53,-20 -107,-32 -159,-37 -52,-6 -107,-9 -163,-9 -157,0 -306,29 -446,87 -138,57 -259,139 -363,246 -103,107 -183,237 -243,387 -59,151 -89,320 -89,509 0,44 3,91 7,145 4,53 10,108 20,163 10,54 22,106 36,158 15,51 34,95 55,134l1345 -1783zm3313 3487l-1162 0 0 -6328 1162 0 0 6328zm2680 -1108c45,15 90,25 136,28 45,4 89,7 134,7 113,0 222,-16 326,-46 104,-32 202,-77 293,-134 92,-58 175,-129 245,-211 72,-84 132,-176 176,-277l846 850c-107,151 -231,288 -370,409 -140,122 -291,224 -453,309 -161,84 -331,149 -510,192 -179,43 -364,66 -553,66 -317,0 -617,-59 -897,-177 -282,-118 -527,-284 -736,-495 -211,-212 -375,-463 -496,-754 -122,-292 -182,-612 -182,-963 0,-358 60,-684 182,-979 121,-296 285,-549 496,-758 209,-208 454,-371 736,-486 280,-116 580,-173 897,-173 189,0 374,23 554,68 180,44 352,109 514,194 161,84 313,188 454,311 142,122 266,259 372,412l-2164 2607zm592 -2379c-54,-20 -107,-32 -159,-37 -52,-6 -107,-9 -163,-9 -157,0 -306,29 -446,87 -138,57 -259,139 -363,246 -103,107 -184,237 -243,387 -59,151 -89,320 -89,509 0,44 3,91 7,145 4,53 10,108 20,163 10,54 22,106 36,158 15,51 34,95 55,134l1345 -1783zm6492 1183c0,339 -60,654 -181,945 -122,292 -286,544 -495,756 -208,214 -453,381 -733,504 -280,122 -582,184 -903,184 -318,0 -618,-62 -898,-184 -281,-123 -525,-290 -736,-504 -209,-212 -375,-464 -496,-756 -121,-291 -182,-606 -182,-945 0,-343 61,-662 182,-955 121,-293 287,-545 496,-759 211,-212 455,-379 736,-500 280,-122 580,-182 898,-182 321,0 623,57 903,171 280,114 525,276 733,487 209,209 373,461 495,756 121,294 181,622 181,982zm-1163 0c0,-186 -30,-353 -90,-505 -61,-150 -143,-280 -247,-388 -104,-110 -227,-192 -367,-249 -138,-58 -287,-87 -445,-87 -158,0 -306,29 -446,87 -139,57 -260,139 -364,249 -102,108 -183,238 -242,388 -59,152 -90,319 -90,505 0,175 31,338 90,486 59,151 140,280 242,390 104,110 225,196 364,260 140,63 288,95 446,95 158,0 307,-30 445,-90 140,-59 263,-141 367,-249 104,-107 186,-237 247,-388 60,-153 90,-321 90,-504zm2955 2304l-1152 0 0 -4527 278 0 381 440c186,-169 397,-300 632,-391 235,-91 480,-137 737,-137 276,0 537,52 782,159 245,105 459,249 642,434 183,185 328,401 434,648 106,246 158,509 158,787l0 2587 -1153 0 0 -2587c0,-118 -23,-230 -68,-336 -46,-105 -107,-197 -186,-277 -79,-78 -170,-140 -276,-186 -104,-45 -215,-68 -333,-68 -121,0 -235,23 -342,68 -108,46 -200,108 -280,186 -78,80 -140,172 -186,277 -45,106 -68,218 -68,336l0 2587z"/>
  <rect class="fil242 str1" x="11499" y="21467" width="84.67" height="254"/>
 </g>
</svg>
